<?xml version="1.0" encoding="utf-8"?>
<svg version="1.0" xmlns="http://www.w3.org/2000/svg" width="804px" height="536px" viewBox="0 0 804 536" preserveAspectRatio="xMidYMid meet">
  <g fill="#030b0b">
    <path d="M395 471.9 c-12.3 -1.6 -24.7 -3.8 -27.1 -4.8 -1.5 -0.5 -2.9 -0.8 -3.1 -0.5 -0.3 0.2 -2.2 -0.3 -4.4 -1.2 -2.1 -0.9 -5.1 -1.8 -6.7 -2 -1.5 -0.2 -4 -1 -5.6 -1.8 -1.5 -0.8 -3.9 -1.7 -5.2 -2 -2.1 -0.4 -6.6 -2 -12.4 -4.6 -1.1 -0.4 -7.8 -3.6 -15 -7.1 -7.1 -3.4 -13.2 -6.3 -13.5 -6.3 -0.3 -0.1 -1.9 -1.1 -3.7 -2.4 -1.7 -1.2 -3.4 -2.2 -3.7 -2.2 -0.4 0 -1.9 -0.8 -3.4 -1.9 -2.2 -1.5 -8.7 -5.9 -15.9 -10.6 -4.6 -3 -10.4 -9.2 -12.1 -12.8 -1.5 -3.3 -1.9 -6.1 -1.8 -13.4 l0.2 -9.2 -4.3 -1 c-2.4 -0.6 -4.3 -1.6 -4.3 -2.1 0 -0.6 -0.6 -1 -1.4 -1 -3.6 0 -25.6 -21.9 -28.6 -28.4 -3.4 -7.6 -2.4 -17.8 2.7 -27.9 1.3 -2.5 1.3 -3.1 0 -4.5 -0.8 -1 -3 -4.2 -4.8 -7.2 -4.1 -7 -4.7 -15.8 -1.6 -22.9 1.1 -2.5 2.3 -4.8 2.6 -5.1 1.4 -1.1 4.1 -6 3.3 -6 -0.5 0 -1.5 -2.5 -2.2 -5.6 -1.1 -4.5 -1.1 -6.5 -0.1 -10.2 0.7 -2.6 1.9 -5.1 2.7 -5.5 1.8 -1 1.8 -2.6 0 -6.3 -0.8 -1.6 -1.6 -5.8 -1.7 -9.4 -0.2 -5.5 0.2 -7.2 2.4 -10.7 1.4 -2.2 3.8 -5 5.4 -6.2 1.5 -1.1 3.3 -2.4 3.8 -2.9 0.6 -0.4 2.7 -1.8 4.8 -3.1 3.6 -2.2 3.8 -2.7 3.2 -5.5 -0.4 -1.7 -1 -4.9 -1.4 -7.1 -0.4 -2.3 -1.1 -4.6 -1.5 -5.3 -3 -4.8 -2.3 -21.7 1.2 -29.3 3 -6.4 11.5 -14.7 16.1 -15.7 0.9 -0.1 3.3 -0.5 5.4 -0.9 2.5 -0.4 4.4 -1.5 5.7 -3.3 1.1 -1.6 2 -3 2 -3.3 0 -1 8.3 -14.2 9.1 -14.5 0.5 -0.2 0.9 -0.8 0.9 -1.3 0 -0.5 2.2 -3.2 5 -5.9 2.7 -2.7 5 -4.7 5 -4.4 0 0.3 0.6 0 1.2 -0.6 0.7 -0.6 3.8 -2.4 6.8 -3.8 5.4 -2.7 5.6 -3 12 -15.3 7.4 -14.2 12.7 -22.9 14.1 -22.9 0.5 0 0.9 -0.4 0.9 -0.9 0 -1.1 13 -14.1 14.1 -14.1 0.5 0 0.9 -0.4 0.9 -1 0 -0.5 1.9 -1.9 4.3 -3.1 2.3 -1.2 5 -2.8 6 -3.7 0.9 -0.8 1.7 -1.2 1.7 -0.7 0 0.4 1.2 0 2.6 -1 1.4 -0.9 3.3 -1.8 4.2 -2 0.9 -0.2 3.6 -1 6 -1.9 2.3 -0.8 4.9 -1.3 5.7 -1 0.8 0.4 1.5 0.2 1.5 -0.2 0 -0.5 4.4 -0.8 9.7 -0.7 5.4 0.1 9.8 0.3 9.8 0.3 0 0.1 1.1 0.3 2.5 0.6 1.4 0.2 4.1 1.1 6.1 1.9 2 0.7 3.9 1.1 4.2 0.8 0.3 -0.3 1.8 0.3 3.4 1.3 1.5 1.1 4.6 2.8 6.8 3.9 2.2 1.1 4.2 2.2 4.5 2.5 0.3 0.3 2.8 2.4 5.5 4.7 l5 4.1 3 -2.4 c4.7 -3.8 4.8 -3.9 9 -6.1 6 -3.1 8.8 -4.3 11 -4.8 1.1 -0.2 4.7 -1.1 8 -1.9 7.9 -2 14.9 -2 21.6 0 3 0.9 5.9 1.7 6.4 1.9 0.6 0.1 2.3 0.7 3.8 1.3 1.6 0.7 3.3 1.2 3.8 1.2 0.5 0 0.9 0.4 0.9 0.9 0 0.5 0.9 1.2 2 1.6 2.4 0.8 15 13.1 15 14.7 0 0.6 0.6 1.9 1.3 2.7 0.7 0.9 2 3.6 2.8 6.1 1.4 4.7 1.5 5 1.7 9.1 0.2 2.2 1 2.9 5 4.4 9.3 3.4 13.8 6.1 20 12.2 3.5 3.5 6.9 6.3 7.7 6.3 1.8 0 7.5 7 7.5 9.2 0 0.9 -0.5 2 -1 2.3 -1.1 0.7 1.2 3.5 2.9 3.5 0.6 0 2 1.8 3.1 4.1 1.6 3.1 1.8 4.4 1 5.4 -0.8 1 -0.8 1.9 0 3.5 1.4 2.7 0.8 5.6 -2.4 10.2 -1.3 2 -2.7 4.7 -3.1 5.9 -0.7 2.2 -6.8 8.8 -8.3 9 -3.3 0.3 -5 1.5 -10.3 6.8 -3.4 3.3 -6.9 6.3 -8 6.6 -1 0.4 -1.9 1.1 -1.9 1.6 0 0.5 -0.8 0.9 -1.8 0.9 -3.4 0 -3.2 1.3 1.1 5.4 5.9 5.8 8 8.5 10.7 14.1 1.4 2.8 2.5 5.2 2.6 5.5 0 0.3 0.6 1.9 1.3 3.5 0.7 1.7 1.4 4 1.6 5.3 0.1 1.3 1.2 3 2.3 3.8 2.3 1.6 3.8 7 2.8 10.1 -0.9 2.9 -6.7 8.7 -10 10.1 -2.3 1 -2.6 1.5 -1.6 2.7 2.1 2.5 0.3 8.1 -4 12.7 -2.2 2.3 -3.9 4.2 -3.8 4.3 9.9 6.4 14 15.5 10.6 23.1 -1.1 2.4 -6.5 8.6 -7.8 9 -0.3 0.1 -1.5 0.5 -2.8 0.9 -1.3 0.4 -2.5 1.8 -2.8 3.4 -0.3 1.4 -1.1 4.4 -1.8 6.7 -1.1 3.6 -1 4.4 0.9 7.5 4.3 7.1 6.1 15.6 4.5 21.4 -1 3.7 -1 4.6 0.6 7 l1.8 2.8 2 -5.4 c1.2 -3 2.4 -5.9 2.8 -6.5 1.2 -1.8 5.4 -1.3 8.2 1 l2.6 2.1 -1.6 10.9 c-1.5 10.2 -1.5 11.1 0.1 14.7 1.3 2.8 1.6 5.1 1.2 8.4 -0.4 2.5 -0.3 5.3 0.2 6.3 4.5 8.8 5.7 14.6 5.4 26.8 -0.1 9.5 -3.6 16.7 -12.2 25.6 -3.6 3.8 -6.9 6.8 -7.3 6.8 -0.7 0 -7.2 4.1 -9.4 5.9 -0.6 0.4 -3.8 2.1 -7.2 3.7 -3.4 1.5 -6.2 3.2 -6.2 3.6 0 0.4 -0.7 0.8 -1.6 0.8 -1.5 0 -3.6 0.8 -12.4 4.8 -1.9 0.9 -3.7 1.7 -4 1.7 -0.3 0 -2.3 0.7 -4.5 1.5 -2.2 0.8 -4.4 1.4 -5 1.5 -0.5 0.1 -2.3 0.7 -4 1.4 -1.6 0.7 -4.3 1.3 -6 1.3 -1.6 -0.1 -3.4 0.3 -4 0.8 -0.5 0.4 -6.6 1.8 -13.5 3 -10.2 1.8 -16.8 2.3 -36.5 2.4 -13.2 0.1 -26.5 -0.1 -29.5 -0.5z m-54.6 -29.1 c0.9 -3.5 0.8 -3.8 -1.4 -3.8 -1.1 0 -2 0.3 -2 0.8 0 1.9 1.3 5.2 2 5.2 0.4 0 1 -1 1.4 -2.2z m-7.4 -15.7 c0 -1.1 -0.4 -2.3 -1 -2.6 -0.5 -0.3 -1 -0.2 -1 0.4 0 0.5 -0.3 1.6 -0.6 2.5 -0.4 1.1 -0.1 1.6 1 1.6 0.9 0 1.6 -0.8 1.6 -1.9z m94.5 -0.1 c1.9 -0.5 -0.5 -0.7 -7 -0.7 -8.4 0 -9.1 0.1 -4.5 0.7 7.3 0.9 8 0.9 11.5 0z m110.1 -7.2 c-1.6 -2.2 -1.6 -2.2 -1.6 -0.1 0 1.2 0.6 2.3 1.3 2.6 1.9 0.7 2 0 0.3 -2.5z m-78.1 0.6 c4.3 -1.1 4.4 -1.2 1 -0.7 -2.2 0.3 -6.9 0.9 -10.5 1.3 l-6.5 0.7 5.5 0.1 c3 0 7.8 -0.6 10.5 -1.4z m-67.5 -2.4 c1.1 -0.7 0.2 -1 -3.1 -1 -2.6 0 -6.2 -0.2 -8 -0.5 -2.7 -0.4 -2.5 -0.2 1.1 0.9 5.5 1.7 8 1.9 10 0.6z m34 -3.9 c0 -2.8 -0.1 -2.8 -7.4 -3.4 -4 -0.4 -8 -0.9 -9 -1.3 -1.3 -0.5 -1.6 0 -1.6 2.9 0 4.1 0.6 4.3 11.8 4.6 6.2 0.1 6.2 0.1 6.2 -2.8z m-77.9 -14.2 c-0.9 -2.2 -1 -2.2 -1 -0.3 -0.1 1.1 0.2 2.4 0.6 2.7 1.2 1.2 1.4 0 0.4 -2.4z m84.4 2.1 c-1.6 -0.4 -4.6 -0.8 -6.5 -0.7 l-3.5 0 4 0.7 c2.2 0.4 5.1 0.7 6.5 0.7 2.2 0.1 2.2 0 -0.5 -0.7z m-15 -2.1 c-2.2 -0.4 -6.7 -0.7 -10 -0.7 l-6 0.1 6 0.7 c3.3 0.4 7.8 0.7 10 0.7 l4 0.1 -4 -0.9z m-58.4 -4 c-0.9 -2.2 -1 -2.2 -1 -0.3 -0.1 1.1 0.2 2.4 0.6 2.7 1.2 1.2 1.4 0 0.4 -2.4z m-21.8 -2.9 c-0.4 -0.5 -3.2 -1.8 -6 -2.9 -5.1 -2 -5.3 -2 -6.2 -0.2 -0.9 1.6 -0.2 2.2 5.7 5 6.6 3 6.7 3 7 1 0.2 -1.2 0 -2.5 -0.5 -2.9z m156 0.3 c-1.3 -0.2 -3.3 -0.2 -4.5 0 -1.3 0.2 -0.3 0.4 2.2 0.4 2.5 0 3.5 -0.2 2.3 -0.4z m-101.4 -1.7 c-0.2 -0.2 -5.3 -1.7 -11.4 -3.4 -6 -1.6 -11.9 -3.3 -13 -3.8 -1.8 -0.7 -1.8 -0.6 -0.6 0.9 0.7 0.9 2.3 1.7 3.5 1.8 1.1 0 5.5 1.1 9.6 2.4 6.7 2 13 3.2 11.9 2.1z m75.1 -3.5 c3 -0.6 -2.7 -0.9 -17 -1 -13.7 -0.1 -24.4 -0.7 -29.5 -1.6 -9.1 -1.7 -12.6 -1.8 -7.5 -0.3 10.5 3.1 43.1 4.8 54 2.9z m-61 -5.1 c-3.4 -1.1 -6 -1.1 -3.5 0 1.1 0.5 2.9 0.8 4 0.8 1.6 0 1.5 -0.2 -0.5 -0.8z m-141 -2.5 c2.4 -1.4 2.3 -1.4 -2.7 -1.5 -5.7 0 -6.6 0.5 -3 2 2.9 1.2 2.8 1.2 5.7 -0.5z m120.5 -2.5 c-1.1 -0.5 -2.7 -0.9 -3.5 -0.9 -0.9 0 -0.8 0.4 0.5 0.9 1.1 0.5 2.7 0.9 3.5 0.9 0.9 0 0.8 -0.4 -0.5 -0.9z m-59.5 -2.5 c0 -1 -7.6 -2.4 -9.9 -1.7 -2.1 0.6 -1.6 0.8 2.9 1.3 3 0.3 5.8 0.6 6.3 0.7 0.4 0.1 0.7 0 0.7 -0.3z m181.9 -15.7 c-0.1 -4.3 -0.2 -4.8 -0.9 -2.7 -0.7 2.4 -0.3 7.9 0.6 7.9 0.2 0 0.4 -2.4 0.3 -5.2z m-226.9 -9 c-0.7 -1.9 -0.9 -1.5 -0.9 2.2 0 3.7 0.2 4.1 0.9 2.3 0.6 -1.4 0.6 -3.2 0 -4.5z m120 3.8 c0 -2.4 -1.7 -2.8 -2.3 -0.6 -0.3 1.3 0 2 0.9 2 0.8 0 1.4 -0.6 1.4 -1.4z m-171.2 -4.3 c-0.5 -2 -0.8 -5.5 -0.5 -7.7 0.4 -2.6 0.2 -3.5 -0.4 -2.5 -1.2 1.9 -1.1 9.6 0.1 12 1.6 3 1.9 2.3 0.8 -1.8z m30.5 -8.5 c-2 -2 -3.5 -2.7 -4.7 -2.2 -1.5 0.6 -1.2 1.2 2 4.5 3.3 3.3 3.9 3.7 4.7 2.3 0.7 -1.2 0.2 -2.4 -2 -4.6z m13.7 -3.1 c0 -0.2 -1.7 -1.9 -3.7 -3.8 l-3.8 -3.4 3.4 3.8 c3.3 3.4 4.1 4.2 4.1 3.4z m183.3 -6.4 c-2.9 -0.2 -7.7 -0.2 -10.5 0 -2.9 0.2 -0.6 0.3 5.2 0.3 5.8 0 8.1 -0.1 5.3 -0.3z m-141.9 -1.9 c0.9 -2.2 0.8 -2.4 -0.9 -2.4 -0.8 0 -1.5 0.9 -1.5 2 0 2.4 1.5 2.7 2.4 0.4z m170.1 -11.6 c2.1 -0.9 3.5 -2.8 2.1 -2.8 -1.6 0 -5.6 2.1 -5.6 3 0 1.3 0.3 1.3 3.5 -0.2z m-53.5 -2.1 c0 -1.3 -0.7 -3.2 -1.6 -4.3 -1.5 -1.8 -1.5 -1.8 -0.5 0.3 0.6 1.2 1.1 3.1 1.1 4.2 0 1.2 0.2 2.1 0.5 2.1 0.3 0 0.5 -1 0.5 -2.3z m-21.8 -1.1 c0.4 -2.1 -0.2 -2.5 -5.6 -4.4 -6.1 -2.1 -7.5 -1.8 -7.6 1.5 0 0.9 8.2 4.4 12.1 5.2 0.4 0 0.9 -1 1.1 -2.3z m-170.5 -13.7 c-2.3 -2.6 -4.5 -4.7 -4.8 -4.8 -0.4 -0.1 -1.2 1.2 -1.8 2.7 -1.3 3 -0.6 6 2.5 10.7 l1.7 2.6 3.3 -3.2 3.4 -3.2 -4.3 -4.8z m-14.6 2.5 c-0.7 -3.1 -0.9 -3.4 -1 -1.2 -0.1 2.7 0.9 6.2 1.5 5.5 0.3 -0.2 0 -2.2 -0.5 -4.3z m158.7 3.9 c-1 -0.2 -2.8 -0.2 -4 0 -1.3 0.2 -0.5 0.4 1.7 0.4 2.2 0.1 3.2 -0.1 2.3 -0.4z m77.6 -6.5 l3.1 -2 -3.5 0.6 c-1.9 0.4 -7.9 1.2 -13.2 1.8 -13.1 1.5 -13.2 3.3 -0.3 5.3 6.8 1 7.1 1 8.9 -1.3 1.1 -1.4 3.3 -3.3 5 -4.4z m43.6 0.7 c0 -0.2 -0.8 -0.9 -1.8 -1.4 -1.3 -0.7 -3.2 -0.6 -6.3 0.4 l-4.4 1.4 6.3 0 c3.4 0.1 6.2 -0.1 6.2 -0.4z m-110.4 -6.5 c-1.6 -0.5 -4.5 -0.5 -6.5 -0.1 -3.2 0.8 -2.9 0.9 2.9 0.9 5.2 0 5.9 -0.1 3.6 -0.8z m54.9 -3.5 c17.2 -3.3 33.4 -8.7 46.1 -15.4 l5.3 -2.8 -18.7 -0.7 c-20.8 -0.7 -44.3 -3 -54.2 -5.1 -9.1 -2 -32.6 -6.2 -38.3 -7 -2.7 -0.4 -10.9 -0.3 -18.2 0.1 l-13.4 0.7 2.5 3.6 c1.3 1.9 2.4 4 2.4 4.6 0 0.5 3.5 2.8 7.8 4.9 4.2 2.2 10 5.4 12.7 7.2 3.9 2.4 6.5 3.3 11.5 3.7 4 0.3 9.9 1.8 15.5 4 8.3 3.3 9.8 3.6 20 3.6 6.1 0.1 14.6 -0.6 19 -1.4z m-107.5 -10.7 c0 -2.3 -0.3 -2.9 -1.1 -2.1 -0.6 0.6 -0.8 2 -0.4 3.2 0.9 3 1.5 2.6 1.5 -1.1z m11.1 -6 c-0.9 -2 -1 -1.8 -1 1.7 0 3.1 0.2 3.6 0.9 2.3 0.6 -1 0.7 -2.5 0.1 -4z m-122.9 -3.2 c-0.3 -2.3 -0.7 -3.3 -1.2 -2.6 -0.4 0.7 -0.3 2.6 0.2 4.2 1.3 3.7 1.6 3.3 1 -1.6z m68.4 -2 c-0.7 -2.2 -2.4 -4.2 -5.2 -6 -2.2 -1.4 -7.9 -6.1 -12.5 -10.4 -6.2 -5.9 -9.4 -8.1 -12.1 -8.6 -2 -0.4 -6 -2.5 -8.8 -4.7 -3.3 -2.6 -5 -3.5 -5 -2.4 0 0.8 1.2 2.2 2.8 3.2 1.5 0.9 6.5 4.9 11.2 8.8 7.9 6.6 28 22 30.6 23.4 0.1 0.1 -0.4 -1.4 -1 -3.3z m33.8 1.8 c0.7 -1.8 -1.6 -4.9 -4.7 -6.5 -3.2 -1.8 -3.3 2 -0.1 5.1 3.4 3.4 4 3.5 4.8 1.4z m190.5 -8.9 c4.8 -1.2 12.1 -6.4 12.1 -8.5 0 -0.4 -3 -0.1 -6.7 0.6 -12.8 2.5 -41.9 3.7 -60.6 2.4 -19.9 -1.3 -30.7 -2.8 -54.2 -7.5 -23.9 -4.7 -36.1 -6.1 -41.8 -4.6 -2.5 0.6 -6 1.1 -7.6 1.1 -2.9 0 -3.1 -0.2 -3.1 -4 0 -4.9 1.1 -5.6 11 -6.5 9.4 -0.8 23.5 0.6 43.2 4.4 37.3 7.2 43.2 8 66.3 8.8 19.4 0.7 37.7 -1.2 50.3 -5.2 7.7 -2.4 14.2 -6.6 14.2 -9.1 0 -1.2 -0.7 -1.1 -3.7 0.5 -4.2 2.1 -20.9 6.3 -32.1 8 -19.1 2.9 -52 0.4 -84.7 -6.4 -47.4 -10 -57.3 -10 -67.8 -0.3 -5.9 5.6 -6.9 9.1 -3.4 12.5 l2.6 2.6 20.8 0.2 c20.4 0.1 21.3 0.2 43.8 4.7 30.9 6.1 42.9 7.4 75.5 7.6 15.1 0.1 21.9 -0.2 25.9 -1.3z m-291 -17.7 c0 -4.5 -0.2 -4.9 -1 -2.9 -0.9 2.2 -0.4 8.1 0.7 8.1 0.2 0 0.4 -2.4 0.3 -5.2z m110.8 -4.9 c1.5 -7.8 5.1 -12.4 12.8 -16.4 5.5 -2.8 6.7 -3 18.9 -3.3 17.2 -0.4 25.9 0.6 51.1 6.1 30.4 6.6 40.5 7.9 59.5 8 22.3 0.2 38.7 -2.7 51.2 -8.9 4.5 -2.3 4.7 -2.5 3.7 -5.1 -2.7 -7.1 -7.6 -14.7 -12.6 -19.4 -4.8 -4.5 -5.8 -5.1 -8.5 -4.5 -1.7 0.3 -6.6 0.6 -10.9 0.6 -7.8 0 -7.9 0 -7.9 2.5 0 4.2 -5.7 3.4 -18.7 -2.7 l-11.2 -5.3 0 -4.2 -0.1 -4.3 3.9 0 c2.1 0 6.9 1.1 10.6 2.6 16.8 6.2 41.5 1.4 52.6 -10.3 l3.4 -3.6 -3 0.7 c-1.6 0.4 -12.7 1 -24.5 1.3 -17.2 0.4 -23.3 0.2 -30.8 -1.1 -11.5 -2 -10.7 -2.1 -12 0.8 -1.3 2.9 -8.2 7.1 -13.2 8.1 -6.1 1.2 -7 1.6 -7 3.5 0 3.7 -19.1 14.7 -32.2 18.5 -3.2 0.9 -7.7 1.5 -10 1.3 -4.2 -0.3 -4.3 -0.4 -4.6 -4 l-0.3 -3.7 7.2 -2.1 c3.9 -1.2 10.6 -3.8 14.8 -5.8 l7.6 -3.6 -16.5 -0.7 c-22.4 -0.9 -37.9 -4.7 -48.1 -11.9 -2.3 -1.7 -2.9 -2.9 -2.9 -6 0 -3.2 0.4 -3.9 2.3 -4.2 1.9 -0.3 1.7 -0.7 -2.2 -3.2 -5.4 -3.5 -9.2 -4.6 -15.4 -4.6 -6.7 0 -9.7 -3 -9.7 -9.9 0 -5.4 1.5 -7.7 5.6 -8.7 1.8 -0.5 2.4 -1.3 2.4 -3.4 0 -3.2 1.4 -4 6.9 -4 3.7 0 15.6 -5.1 21.1 -9 10.8 -7.7 28.2 -12.9 45.8 -13.7 l12.4 -0.6 -5.1 -3.2 c-2.9 -1.8 -9.1 -4.6 -13.9 -6.1 -7.3 -2.4 -10.4 -2.9 -19.2 -2.9 -14.4 0 -25.5 3.7 -36.4 11.9 -3.5 2.7 -5.6 3.6 -8.6 3.6 l-4 0 0 -4.5 c0 -4.1 0.3 -4.7 4.3 -7.6 5.7 -4.3 16.8 -9.3 24.7 -11.3 4.1 -1 11.7 -1.7 20 -1.8 14.2 -0.2 22.2 1.2 31.7 5.4 2.5 1.1 4.6 1.8 4.9 1.6 0.2 -0.2 -1.2 -2.7 -3 -5.4 -9.9 -14.6 -29.3 -25.4 -46.4 -25.5 -33.4 -0.3 -65.8 33.6 -77.3 80.9 l-2.2 9.3 -4.1 -0.3 c-3.8 -0.3 -4.1 -0.5 -4.4 -3.4 -0.2 -1.8 0.4 -5.9 1.2 -9.2 0.9 -3.3 1.6 -6.4 1.6 -6.8 0 -2 -11.5 10.7 -15.5 17.1 -4.7 7.5 -13.8 26.3 -14.8 30.6 -0.6 2.3 -0.2 2.8 3.6 4.5 2.6 1.1 8.7 6.3 15.8 13.4 12.3 12.3 13.9 15 13.9 24.1 0 4.3 0.2 4.5 7.5 10.2 6.6 5 8.1 5.7 12.1 5.7 5.2 0 11.3 2.6 16.4 7 1.9 1.6 3.7 3 4 3 0.3 0 1.1 -2.8 1.7 -6.1z m-65.7 -13.1 c-0.1 -2.6 -0.3 -3 -1 -1.6 -0.6 0.9 -0.7 2.3 -0.4 3.2 0.9 2.5 1.4 1.9 1.4 -1.6z m14.2 -7.4 c-0.8 -4.1 -1.8 -3.5 -1.4 0.8 0.3 2.3 0.8 3.5 1.2 2.9 0.4 -0.7 0.5 -2.3 0.2 -3.7z m-21.9 -4.9 c0.9 -1.3 1.4 -2.6 0.9 -2.8 -1.1 -0.8 -5.4 3.1 -4.7 4.3 0.9 1.5 1.8 1.2 3.8 -1.5z m-13.9 -9.4 c-1.7 -0.4 -3.6 -1.1 -4.3 -1.6 -2.3 -1.4 -4.1 -7.3 -4.2 -13.7 l-0.1 -6.3 -1 4.2 c-1.8 8.4 3.6 18.4 9.9 18.2 l2.8 -0.1 -3.1 -0.7z m147.1 -52.1 c0.6 -1 0.2 -1.2 -1.6 -0.8 -1.3 0.3 -6 1.4 -10.4 2.3 -4.4 0.9 -8.2 1.9 -8.3 2 -0.5 0.5 9.4 5.5 13.8 7 l3.5 1.2 1.1 -5.1 c0.6 -2.9 1.4 -5.8 1.9 -6.6z m90.9 6.2 c0.3 -2.8 2 -7.2 3.9 -10.4 l3.4 -5.5 -6.1 1.3 c-3.4 0.7 -9.1 2.2 -12.7 3.3 l-6.6 2.1 -1.1 4.7 c-0.6 2.7 -0.8 5.1 -0.4 5.5 0.7 0.6 14 3.5 17.3 3.7 1.2 0.1 1.8 -1.1 2.3 -4.7z m64.9 -6 l2.2 -2.4 -2.9 -2.3 c-3.1 -2.5 -11.4 -6 -12.2 -5.2 -0.3 0.2 0.4 2 1.5 3.8 1 1.9 2.2 5.3 2.6 7.7 l0.7 4.2 2.9 -1.7 c1.7 -1 4 -2.9 5.2 -4.1z m-96.5 2.5 c1.3 -1.3 2.7 -3.8 3.2 -5.6 0.7 -2.6 0.5 -3.6 -1.4 -5.8 -2 -2.3 -3.1 -2.6 -10.2 -3 l-7.9 -0.5 4.3 2.8 c4.1 2.8 8.2 9.1 8.2 12.7 0 2.3 1.3 2.1 3.8 -0.6z m-75.3 -10.6 c4.4 -1.1 11.2 -3.1 15 -4.5 3.9 -1.4 12.3 -3.9 18.8 -5.6 9.9 -2.5 13.8 -3 24 -3.1 l12.2 0 -7.3 -2.9 c-19.5 -7.7 -36.8 -5.7 -60.7 7 -13.2 7 -18.7 9 -28 10 -6.4 0.7 -5.9 0.7 5.5 0.9 9.2 0.1 14.6 -0.4 20.5 -1.8z m107.5 -10.7 c7.9 -1.8 16.2 -2.8 26.5 -3.3 l15 -0.6 -6 -1.5 c-9.5 -2.3 -31.1 -1.9 -41 0.8 -11.8 3.2 -13.5 4.1 -13.5 6.7 0 2.1 0.2 2.2 3.8 1.4 2 -0.5 8.9 -2.1 15.2 -3.5z m-17 -20.1 c9.7 -3.7 20.1 -5.4 33.9 -5.6 l12.3 -0.2 -7.2 -2.2 c-4.1 -1.2 -11.9 -2.8 -17.4 -3.4 -11.3 -1.3 -33.2 -0.7 -41.4 1.1 -5.3 1.2 -5.3 1.2 -3.5 3.2 1 1.1 3.4 2.8 5.3 3.8 1.9 1 4.6 3 6 4.4 1.5 1.7 3 2.4 4 2 0.8 -0.4 4.4 -1.8 8 -3.1z m-19.5 -20.5 c8.9 -1.6 37.7 -1.5 47.3 0.1 4 0.7 7.6 1 7.9 0.7 0.3 -0.3 -0.7 -3.1 -2.3 -6.3 -9.3 -19.1 -31.9 -28.8 -51.6 -22.2 -6.1 2 -15.5 6.6 -19 9.3 -1.7 1.2 -1.6 1.7 1.1 6.7 1.6 3 3.5 7.3 4.2 9.6 1 3.5 1.6 4.2 3.3 3.8 1.2 -0.2 5.3 -1 9.1 -1.7z"/>
    <path d="M566.9 377.5 c-0.1 -0.3 -0.3 -0.9 -0.4 -1.5 -0.1 -0.5 -0.3 -1.1 -0.5 -1.2 -0.1 -0.2 -0.3 -1.6 -0.5 -3.3 -0.1 -1.6 -0.6 -5.4 -1 -8.2 -0.7 -4.6 -0.5 -5.3 0.9 -5.3 0.9 0 1.7 0.5 1.7 1 0.1 0.6 0.2 1.3 0.3 1.8 1.7 7.4 2.7 14.5 2.2 15.7 -0.5 1.4 -2.4 2.1 -2.7 1z"/>
    <path d="M575.3 357.9 c-4.8 -5.7 -5.2 -6.9 -2.3 -6.9 1.8 0 10 9 10 11.1 0 2.5 -4 0.3 -7.7 -4.2z"/>
    <path d="M570 341.5 c-0.7 -0.8 -1 -2.1 -0.7 -3 0.4 -0.8 0 -2.1 -0.8 -2.9 -3.2 -3.1 -1.1 -5.5 6.9 -8 1.9 -0.6 1.9 -0.5 0.2 -9.2 -0.8 -3.7 1.6 -6.3 6.4 -7 4.4 -0.7 7.3 1.5 8.9 7 2.8 9.6 -0.8 17.4 -10.1 22 -5.9 2.9 -9 3.3 -10.8 1.1z m14.2 -20.8 c-0.9 -1.9 -1.1 -1.3 -1 3.3 0 5.3 0.1 5.4 1 2.2 0.8 -2.3 0.8 -3.9 0 -5.5z"/>
    <path d="M547.2 329.7 c-1.7 -1.3 -2.9 -2.7 -2.5 -3 0.3 -0.4 0.1 -0.7 -0.5 -0.7 -1.6 0 -3.4 -6.5 -2.9 -10.4 0.6 -4.8 7 -13.5 12.9 -17.7 2.5 -1.8 2.9 -1.9 5.1 -0.4 1.3 0.8 3.2 3.1 4.3 5 l1.8 3.5 -5.2 5.3 -5.3 5.4 2.5 3.8 c3.6 5.3 3.3 7.1 -1.4 9.5 -4.9 2.5 -4.9 2.5 -8.8 -0.3z"/>
    <path d="M595.6 303.1 c-0.6 -0.9 10.5 -6.9 14.3 -7.6 3.2 -0.6 4.4 0.9 2.2 2.9 -1.1 1 -2.5 1.9 -3.3 2 -0.7 0.2 -2.4 0.8 -3.8 1.3 -4.4 1.8 -8.8 2.5 -9.4 1.4z"/>
    <path d="M586.6 294.2 c-0.9 -1.4 12.6 -14.2 15 -14.2 2.5 0 1.5 2.6 -2.2 5.6 -2 1.6 -5 4.4 -6.7 6.2 -3 3.1 -5.1 4 -6.1 2.4z"/>
    <path d="M577.4 285.3 c0.3 -1.6 0.9 -3.9 1.2 -5.3 0.3 -1.3 0.9 -2.9 1.3 -3.5 0.4 -0.5 2 -4.4 3.6 -8.5 3.1 -8.3 4.3 -10.3 5.6 -9.4 1.1 0.7 0.7 3.7 -1 7.9 -0.7 1.7 -1.4 3.5 -1.5 4 -0.6 3 -6.1 16.1 -7 16.7 -2.1 1.4 -2.8 0.8 -2.2 -1.9z"/>
    <path d="M567 281.1 c-0.5 -1.1 -0.7 -2.7 -0.4 -3.5 0.4 -0.9 0.2 -2.2 -0.4 -2.9 -1 -1.2 -0.5 -6.4 0.7 -7.1 1.8 -1.2 2.9 1.5 3.4 8.2 0.5 5.8 0.3 7.2 -0.8 7.2 -0.8 0 -1.9 -0.9 -2.5 -1.9z"/>
  </g>
  <g fill="#40a02d" transform="matrix(1, 0, 0, 1, 0.082609, -0.041306)">
    <path d="M267.4 417.8 l-2.9 -3.3 3.3 2.9 c3 2.8 3.7 3.6 2.9 3.6 -0.2 0 -1.6 -1.5 -3.3 -3.2z"/>
    <path d="M407.3 419.3 l-3.3 -0.4 0.7 -6.2 c0.3 -3.4 0.8 -6.4 1 -6.6 0.2 -0.3 4.1 0 8.6 0.7 4.6 0.7 9.7 1.2 11.5 1.2 3.1 0 3.2 0.1 3.2 4.4 0 2.4 0.3 5.1 0.6 6 0.5 1.4 -0.6 1.6 -9.2 1.4 -5.5 0 -11.4 -0.3 -13.1 -0.5z"/>
    <path d="M431.6 416.5 c-0.3 -0.9 -0.6 -2.6 -0.5 -3.8 0.1 -1.6 0.4 -1.2 1 1.2 1 3.4 0.6 5.5 -0.5 2.6z"/>
    <path d="M378.5 409.3 c-1.6 -0.2 -4.1 -0.8 -5.5 -1.3 -1.4 -0.4 -3.7 -1.1 -5.2 -1.4 -3.1 -0.7 -3.9 -3.6 -1 -3.6 0.9 0.1 5.1 0.9 9.2 1.9 5.2 1.2 7.6 2.3 7.8 3.4 0.2 1 -0.2 1.6 -1 1.6 -0.7 -0.1 -2.6 -0.4 -4.3 -0.6z"/>
    <path d="M482 409.3 c0.8 -0.3 2.4 -1 3.5 -1.5 2 -0.9 2 -0.9 0.1 0.6 -1.1 0.9 -2.7 1.6 -3.5 1.5 -1.4 0 -1.4 -0.1 -0.1 -0.6z"/>
    <path d="M474.1 405.5 c0 -2.2 4.1 -5.9 7.9 -6.9 1.8 -0.5 1.4 0 -1.4 1.7 -2.1 1.3 -4.5 3.5 -5.2 4.8 -1.2 2.2 -1.3 2.2 -1.3 0.4z"/>
    <path d="M477.9 405.6 c2.6 -3.1 15.4 -7.6 13.7 -4.7 -0.8 1.2 -11.3 6.1 -13.2 6.1 -1.3 0 -1.4 -0.3 -0.5 -1.4z"/>
    <path d="M488.1 406.7 c3.5 -2.7 6.9 -4.6 6.9 -3.8 0 0.5 -1.4 1.7 -3.2 2.5 -2.8 1.4 -4.8 2.1 -3.7 1.3z"/>
    <path d="M376 402.5 c-2.5 -0.7 -3.6 -1.3 -2.5 -1.4 1.1 0 4.3 0.6 7 1.3 2.9 0.8 3.9 1.4 2.5 1.4 -1.4 0 -4.5 -0.6 -7 -1.3z"/>
    <path d="M334 400.6 c-7.2 -3 -16 -7.5 -16 -8.2 0 -0.3 1.1 -1.9 2.5 -3.6 1.4 -1.6 2.5 -3.6 2.5 -4.4 0 -2 1.3 -1.8 7.6 1.1 3 1.4 5.6 2.5 5.8 2.5 0.2 0 2 0.7 4.1 1.5 3.6 1.6 3.6 1.7 2.1 4 -0.9 1.3 -1.6 3.8 -1.6 5.4 0 1.6 -0.3 3.2 -0.8 3.4 -0.4 0.3 -3.2 -0.5 -6.2 -1.7z"/>
    <path d="M445 399.5 c-1.9 -1.4 -4.3 -2.5 -5.4 -2.5 -1.2 0 -2.6 -0.4 -3.3 -0.8 -0.7 -0.4 5.5 -0.8 13.8 -0.9 8.2 -0.1 15.8 -0.5 16.9 -0.8 2.5 -0.8 2.5 0.3 0.2 3.1 -1.4 1.7 -3.3 2.2 -9.5 2.7 -4.3 0.4 -8.2 0.9 -8.6 1.1 -0.4 0.3 -2.3 -0.6 -4.1 -1.9z"/>
    <path d="M468 401.3 c0 -0.5 0.9 -1.8 2 -2.8 1.1 -1 2 -1.4 2 -0.8 0 0.5 -0.9 1.8 -2 2.8 -1.1 1 -2 1.4 -2 0.8z"/>
    <path d="M384.5 398.5 c-2.5 -1.2 -2.6 -1.4 -0.5 -0.9 1.4 0.4 2.9 1 3.5 1.5 1.2 1.2 0.5 1.1 -3 -0.6z"/>
    <path d="M392.1 399.6 c0.2 -0.2 1.5 -0.9 2.9 -1.6 2.3 -1.2 2.4 -1.2 1.1 0.3 -0.7 1 -2 1.7 -2.9 1.7 -0.8 0 -1.3 -0.2 -1.1 -0.4z"/>
    <path d="M386.2 395.4 c-1.8 -0.8 -7.3 -2.5 -12.4 -3.8 -7.7 -2 -9.6 -2.9 -12.2 -5.9 -3.6 -4 -3.4 -4 -21.5 -11.9 -10.3 -4.5 -15.2 -6.1 -20.1 -6.5 -5.6 -0.5 -7.6 -1.3 -14 -5.5 -4.1 -2.7 -9.9 -6 -12.7 -7.4 -4 -1.9 -5.4 -3.2 -5.8 -5.2 -0.3 -1.5 -1.5 -4.4 -2.6 -6.5 -1.1 -2.1 -1.9 -4 -1.7 -4.3 0.2 -0.2 4.3 2.3 9 5.5 18.9 13 49 27.7 74.8 36.4 9.2 3.2 33 9.6 38.5 10.3 6.8 1 6.4 2.4 -0.6 2.4 -4.5 0 -7.7 0.6 -10.4 2 -4.5 2.3 -4 2.3 -8.3 0.4z"/>
    <path d="M509.4 388.6 c2.1 -2.5 4 -4.6 4.2 -4.6 1.3 0 -2.9 6 -5.2 7.5 -2.5 1.6 -2.3 1.3 1 -2.9z"/>
    <path d="M359.2 389 c-1.3 -1.7 -5.3 -4.6 -9 -6.5 -3.7 -1.8 -6.2 -3.4 -5.7 -3.4 1.2 -0.1 10.3 4.7 13.2 6.9 1.8 1.3 4.9 6 4 6 -0.2 0 -1.3 -1.4 -2.5 -3z"/>
    <path d="M 315 389.3 C 315 388.6 315.3 388 315.8 388 C 316.2 388 318.9 386.2 317.5 387.7 C 316.2 389.2 315 389.9 315 389.3 Z"/>
    <path d="M501 388.5 c-1.1 -1.3 -0.6 -2.2 3.1 -6.3 4.9 -5.3 7.6 -6.1 7.1 -2.2 -0.3 2.9 -5.2 9.4 -7.4 9.8 -0.8 0.2 -2.1 -0.4 -2.8 -1.3z"/>
    <path d="M497.1 385.5 c0 -0.5 2.1 -3.2 4.6 -6 2.5 -2.7 3.6 -3.6 2.5 -2 -3.4 4.9 -7.1 9.1 -7.1 8z"/>
    <path d="M240.2 371.4 c-5.1 -4.7 -9.2 -9 -9.2 -9.6 0 -0.6 3.3 2.1 7.3 6 3.9 3.9 8.3 7.9 9.7 9 1.4 1.1 2.2 2.3 1.9 2.6 -0.3 0.3 -4.7 -3.3 -9.7 -8z"/>
    <path d="M286.5 373.9 c-3.3 -2.2 -6.2 -4.5 -6.4 -5.2 -0.2 -0.7 0.5 -0.5 1.5 0.5 1 0.9 4.4 3.2 7.4 5.2 3 2 5 3.6 4.5 3.5 -0.6 0 -3.7 -1.8 -7 -4z"/>
    <path d="M291.8 372.4 c-4.9 -3 -8.8 -6.2 -8.8 -7 0 -0.8 0.4 -1.4 0.9 -1.4 2 0 19.1 11.3 19.1 12.6 0 2.3 -2.1 1.5 -11.2 -4.2z"/>
    <path d="M298.8 369.3 c-3.2 -2 -5.6 -3.8 -5.4 -4 0.4 -0.4 7.8 3.7 8.6 4.7 0.3 0.4 1.4 1.2 2.5 1.8 1.1 0.6 1.6 1.2 1 1.2 -0.5 0 -3.6 -1.7 -6.7 -3.7z"/>
    <path d="M306 366.9 c-1.9 -1.2 -3.7 -2.4 -4 -2.8 -0.3 -0.3 -1.7 -1.2 -3.2 -2 -1.6 -0.8 -2.8 -1.8 -2.8 -2.3 0 -1.1 0.5 -0.8 8.3 4.4 3.1 2.1 5.7 4.1 5.7 4.3 0 0.7 -0.2 0.6 -4 -1.6z"/>
    <path d="M331.3 362.5 c-6.2 -2.9 -11.3 -5.6 -11.3 -5.9 0 -0.6 21.1 9.3 22.5 10.5 1.6 1.5 0.4 1 -11.2 -4.6z"/>
    <path d="M288.7 363.3 c-1.6 -0.8 -2.7 -1.7 -2.4 -1.9 0.7 -0.7 5.7 1.8 5.7 2.8 0 0.4 -0.1 0.8 -0.2 0.7 -0.2 -0.1 -1.6 -0.8 -3.1 -1.6z"/>
    <path d="M290.5 357 c-1.6 -1.1 -2.6 -2 -2.2 -2 1.1 0 6.7 2.9 6.7 3.5 0 1 -1.6 0.4 -4.5 -1.5z"/>
    <path d="M251.3 349.6 c-3.5 -3.6 -6.3 -7.3 -6.3 -8.2 0 -1.1 1 -0.3 2.8 2.2 1.6 2.2 5.1 5.9 7.7 8.2 2.6 2.3 4.2 4.2 3.4 4.2 -0.7 0 -4.1 -2.9 -7.6 -6.4z"/>
    <path d="M314.5 354 c-3.3 -2.2 -2.9 -2.6 1 -0.8 1.4 0.6 2.5 1.5 2.5 2 0 1.1 -0.1 1.1 -3.5 -1.2z"/>
    <path d="M253.9 346.3 c-7.2 -7.6 -7.2 -7.7 -4.6 -8.4 1.5 -0.4 3.9 -1.7 5.4 -2.8 l2.7 -2.2 6.2 6.2 6.3 6.3 -3.4 3.3 c-1.9 1.9 -3.5 3.8 -3.5 4.3 0 2.2 -2.1 0.6 -9.1 -6.7z"/>
    <path d="M268 351.5 c1.3 -1.4 2.8 -2.5 3.3 -2.5 0.6 0 -0.2 1.1 -1.7 2.5 -1.5 1.4 -3 2.5 -3.3 2.5 -0.4 0 0.4 -1.1 1.7 -2.5z"/>
    <path d="M 541.1 352.2 C 540.9 349.6 543.3 342 544.5 341 C 546 339.7 550 341.3 550 343.1 C 550 343.7 548.275 344.571 547.375 343.671 C 544.975 341.271 544.6 341.1 543.3 346.4 C 541.8 352.3 541.2 354 541.1 352.2 L 541.1 352.2 Z"/>
    <path d="M295.8 342.8 c-2.7 -1.7 -4.6 -3.3 -4.4 -3.6 0.5 -0.4 9.6 5.6 9.6 6.3 0 0.7 -0.2 0.6 -5.2 -2.7z"/>
    <path d="M265 336.5 c-3.4 -3.6 -5.9 -6.5 -5.4 -6.5 1.3 0 12.9 11.8 12.3 12.4 -0.3 0.3 -3.4 -2.4 -6.9 -5.9z"/>
    <path d="M227 334 c0 -0.8 0.5 -2.2 1 -3 0.9 -1.3 1 -1.3 1 0 0 0.8 -0.5 2.2 -1 3 -0.9 1.3 -1 1.3 -1 0z"/>
    <path d="M442.3 325.3 c-2.4 -0.2 -4.3 -0.9 -4.3 -1.4 0 -1.2 12.6 -0.2 15 1.2 1.5 0.9 -2.3 0.9 -10.7 0.2z"/>
    <path d="M478.4 320.1 l-1 -4.8 6.3 -2.1 6.2 -2 2 4 1.9 4 -6.4 2.9 c-3.5 1.6 -6.7 2.9 -7.2 2.9 -0.4 0 -1.3 -2.2 -1.8 -4.9z"/>
    <path d="M226.1 318.5 c-1.8 -2.5 -2.9 -4.5 -2.4 -4.5 1 0.1 6.6 8 6 8.6 -0.2 0.2 -1.8 -1.6 -3.6 -4.1z"/>
    <path d="M404.5 320.4 c-9.3 -3.3 -14.5 -5.5 -14.5 -6.4 0 -0.4 0.9 -1.5 1.9 -2.4 1.1 -1 2.5 -3.1 3.1 -4.7 0.7 -1.6 1.4 -2.9 1.7 -2.9 0.2 0 2.5 0.9 5.1 1.9 2.6 1.1 6.8 2.7 9.5 3.7 2.6 0.9 4.7 1.8 4.7 1.9 0 0.2 -0.7 1.6 -1.5 3.1 -0.8 1.6 -1.5 4.1 -1.5 5.7 0 3.2 0.4 3.2 -8.5 0.1z"/>
    <path d="M389 318.5 c-1.4 -0.8 -2 -1.4 -1.5 -1.4 0.6 0 2.1 0.6 3.5 1.4 1.4 0.8 2.1 1.4 1.5 1.4 -0.5 0 -2.1 -0.6 -3.5 -1.4z"/>
    <path d="M416.1 317.9 c0 -0.9 0.6 -2.2 1.4 -2.9 1 -0.9 1.5 -0.9 1.5 -0.1 0 0.6 -0.4 1.1 -0.9 1.1 -0.5 0 -1.2 0.8 -1.4 1.8 -0.4 1.4 -0.5 1.4 -0.6 0.1z"/>
    <path d="M362 312.6 c-39 -17.5 -66.1 -34.2 -96 -59.1 -4.7 -3.9 -9.7 -7.9 -11.2 -8.8 -2.6 -1.6 -2.8 -2.2 -2.8 -8.7 0 -3.9 0.3 -7 0.6 -7 0.4 0 3.4 2.5 6.7 5.6 5.9 5.5 10.9 8.4 14.3 8.4 0.9 0 5.4 3.6 10.1 8 4.8 4.4 10.5 9.2 12.9 10.7 2.6 1.7 4.4 3.6 4.7 5.3 1.3 6.3 15.9 20.1 29.3 27.6 5.3 2.9 7.2 3.5 10.1 3.1 1.9 -0.3 4 -0.2 4.6 0.4 2.7 2.3 12.7 8.4 19.2 11.6 6.6 3.3 8.4 4.8 8.5 6.6 0 1.2 -1 0.8 -11 -3.7z"/>
    <path d="M350 311.5 c-3.6 -1.9 -6 -3.4 -5.5 -3.4 0.6 0 3.9 1.5 7.5 3.4 3.6 1.9 6.1 3.4 5.5 3.4 -0.5 0 -3.9 -1.5 -7.5 -3.4z"/>
    <path d="M552 313.7 c0 -1.4 6.7 -8.3 7.4 -7.6 0.2 0.2 -1.3 2.3 -3.5 4.6 -2.1 2.3 -3.9 3.7 -3.9 3z"/>
    <path d="M446.8 310.9 c-8.6 -1.4 -10.1 -2 -12.7 -4.7 -1.6 -1.8 -4.2 -3.7 -5.7 -4.4 -2.6 -1 -1.7 -1.3 8.5 -1.9 12.4 -0.9 25.2 -3 33.1 -5.6 5 -1.6 5.1 -1.6 7.5 0.7 1.4 1.3 2.5 2.8 2.5 3.4 0 0.6 -3.5 2.2 -7.8 3.4 -6.1 1.9 -8.5 3.2 -11.7 6.5 l-4 4.2 -9.7 -1.6z"/>
    <path d="M430 307.8 c-4.1 -3.8 -4.2 -4 -1.1 -2.2 1.8 1 4 2.9 4.9 4.2 2 3.1 1.4 2.7 -3.8 -2z"/>
    <path d="M364.8 306.7 c-4.2 -2.3 -8.7 -5 -10 -6 -1.5 -1.2 -1 -1.1 1.7 0.4 2.2 1.2 7 3.7 10.8 5.5 6 3 8.1 4.5 6 4.3 -0.5 0 -4.3 -1.9 -8.5 -4.2z"/>
    <path d="M414 307.4 l-2.5 -1.5 2.5 0.7 c1.4 0.3 3.2 1 4 1.5 1.3 0.7 1.3 0.8 0 0.8 -0.8 0 -2.6 -0.6 -4 -1.5z"/>
    <path d="M221.1 300 c0 -2 3.8 -9.9 3.9 -7.9 0 0.8 -0.9 3.3 -2 5.5 -1 2.1 -1.9 3.2 -1.9 2.4z"/>
    <path d="M321.7 297.1 c-5.7 -3.4 -7.5 -5 -2.8 -2.6 5.1 2.6 9.7 5.5 8.6 5.4 -0.5 0 -3.1 -1.3 -5.8 -2.8z"/>
    <path d="M347.9 296.4 c-3.5 -2.7 -3.3 -2.8 1.4 -0.5 1.5 0.8 2.7 1.8 2.7 2.3 0 1.2 -0.3 1.1 -4.1 -1.8z"/>
    <path d="M 419.6 297.2 C 418.1 297 412.7 295.3 407.6 293.3 C 402.1 291.2 396 289.6 392 289.3 C 387 288.9 384.4 288 380.5 285.6 C 377.8 283.8 372.1 280.6 368 278.5 C 362 275.5 360.2 274 358.7 271 C 356.7 266.7 347.1 257.3 334 246.9 C 327.8 242 323 240 317.6 240 C 313.6 240 312.2 239.3 305.3 234 C 297.8 228.2 297.6 228 297.9 224.1 C 298.5 215.8 296.5 212.3 284.1 200 C 276.8 192.7 270.9 187.8 268.1 186.5 L 263.8 184.6 L 264.3 179.4 C 264.9 174 271.9 157.9 278.6 146.7 C 285.1 136.1 294.9 126.7 301.9 124.5 C 304 123.9 304.2 124 303.6 125.6 C 302 129.6 298.1 146.4 298.6 147.2 C 299.9 149.2 300.8 147.3 302.9 138.8 C 312.7 98.5 337.9 67.3 367 59.4 C 375.6 57.1 390.5 57.1 398.5 59.5 C 418.1 65.2 435.4 81.4 439 97.5 C 439.9 101.6 439.7 101.7 436 99 C 431.6 95.9 421.1 91.4 413.5 89.5 C 404.8 87.4 388 87.4 379 89.6 C 367 92.6 350 101.9 350 105.5 C 350 107.8 351.6 107.3 356.6 103.4 C 374 90.2 400.2 87.3 422.8 96 C 429.9 98.7 443.9 108.1 444.7 110.6 C 444.9 111.3 442.5 111.3 436.8 110.7 C 416.9 108.7 392.8 114.2 379 124 C 373.5 127.9 361.6 133 357.9 133 C 353.5 133 351 133.8 351 135.2 C 351 135.9 353.3 136 357.7 135.6 C 364.5 134.9 372.2 131.6 382.5 125.1 C 391.3 119.5 407.2 114.6 420 113.5 C 431.5 112.5 447 114.4 453.8 117.7 C 459.4 120.5 463.8 124.9 462.6 126.8 C 462.3 127.3 458.7 126.4 453.9 124.5 C 442.5 119.8 431.2 118.4 419 119.9 C 405.1 121.7 403.2 122.3 383.5 131.8 L 365.5 140.5 L 357 140.6 C 346.3 140.7 346.4 140.7 344.6 142.6 C 342.3 144.8 342.6 147.7 345.5 150.5 C 347.4 152.5 348.9 153 352.7 153 C 359.4 153 363.2 154.3 369.9 158.9 C 378.7 164.9 389.4 169.9 397.8 172.1 C 418.2 177.3 445 174.7 460.8 165.9 L 466 163 L 466 165.7 C 465.9 171.2 459.1 176.4 450.4 177.6 C 447.7 177.9 445.2 178.4 444.8 178.6 C 442.4 180.1 422.6 181 412.2 180.1 C 394.9 178.6 383.4 175.3 372.8 168.9 C 368.4 166.3 366.3 167.2 370 170.2 C 374.5 173.8 382.2 177.2 391.9 179.7 C 406.4 183.5 431.3 184.1 446.5 181 C 459.3 178.5 465.3 175.4 467.8 170.4 C 468.8 168.1 469.9 167.1 470.9 167.5 C 472.9 168.3 479.5 169.7 485.5 170.7 C 488.3 171.1 499.1 171.5 509.5 171.5 C 528.9 171.5 536.3 170.6 549.3 166.8 C 553.1 165.7 556.4 165.1 556.8 165.4 C 557.8 166.5 553.6 170 549.9 171.1 C 547.4 171.9 544.6 174 541.7 177.4 C 536.8 183.1 528.9 187.8 519.5 190.6 C 515 192 510.4 192.4 501 192.3 C 490.1 192.2 487.6 191.9 481.6 189.6 C 473.8 186.6 473 186.5 473.1 188.3 C 473.1 189.8 495.7 200.6 496.7 199.6 C 497.2 199.2 496.7 198.3 495.7 197.6 C 494.8 196.9 494 196 494 195.7 C 494 195.5 499.3 195 505.8 194.7 C 512.2 194.4 518.9 193.8 520.6 193.5 C 523.4 192.9 524.3 193.4 529.9 198.5 C 534.5 202.8 537 206.2 540 212.4 C 542.2 216.8 544.1 221.9 544.2 223.5 C 544.5 226.3 544 226.7 538 229.7 C 524.6 236.4 502.8 239.6 478.5 238.6 C 460.4 237.8 450.1 236.2 422.5 230.3 C 398.6 225.1 391.7 224.1 377.3 224.1 C 364.6 224 357.7 226.2 351.5 232.4 C 343.8 240.1 343.5 251 350.7 256 C 354.3 258.5 354.6 258.5 373.9 258.3 C 394.5 258.1 395.2 257.8 430.7 265.1 C 443.2 267.7 465.2 270 489.9 270.7 C 516.4 271.4 515.7 270.9 501.1 278.8 C 487.3 286.1 472.1 291.5 455 295.1 C 449.3 296.3 424.6 297.7 419.6 297.2 L 419.6 297.2 Z M 417.6 200.5 C 426.6 197.5 433.5 194.1 441.3 188.8 C 446.5 185.2 448.4 183 446.1 183 C 445.6 183 442.4 184.8 439 187.1 C 431.6 192 422.4 196.2 413 199 C 409.1 200.2 406.2 201.5 406.5 202.1 C 407.4 203.5 409.5 203.2 417.6 200.5 Z"/>
    <path d="M480.7 294.2 c-1 -1 -1.7 -2.1 -1.7 -2.5 0 -0.8 7 -3 7.7 -2.3 0.4 0.3 -0.8 0.9 -2.5 1.2 -3.5 0.7 -3.9 1.3 -2 3.2 0.6 0.6 0.9 1.4 0.6 1.7 -0.2 0.3 -1.2 -0.3 -2.1 -1.3z"/>
    <path d="M328.5 289.9 c-4.2 -2.7 -7.5 -5.3 -7.2 -5.6 0.4 -0.3 1.2 0.1 2 0.8 0.7 0.8 3 2.3 5 3.4 2 1.1 3.7 2.3 3.7 2.7 0 0.5 0.6 0.8 1.4 0.8 0.7 0 1.9 0.7 2.6 1.5 2 2.4 0.7 1.8 -7.5 -3.6z"/>
    <path d="M398.5 294 c-1.3 -0.5 -1.4 -0.9 -0.5 -0.9 0.8 0 2.4 0.4 3.5 0.9 1.3 0.5 1.4 0.9 0.5 0.9 -0.8 0 -2.4 -0.4 -3.5 -0.9z"/>
    <path d="M308.2 289 c-3.4 -2.2 -6.2 -4.2 -6.2 -4.4 0 -0.3 2.9 1.3 6.5 3.5 5.7 3.7 7.3 4.9 6.2 4.9 -0.2 0 -3.2 -1.8 -6.5 -4z"/>
    <path d="M377 288 c-2.5 -1.6 -5 -3 -5.6 -3 -0.6 0 -1.8 -0.8 -2.5 -1.7 -1.5 -1.9 9.6 3.9 12.1 6.3 2.3 2.2 0.9 1.6 -4 -1.6z"/>
    <path d="M312.5 277 c-3.8 -3.9 -6.7 -7 -6.5 -7 0.9 0 14.2 13.1 13.8 13.5 -0.2 0.3 -3.5 -2.7 -7.3 -6.5z"/>
    <path d="M328 276.9 c-1.9 -1.7 -5 -4.3 -6.9 -5.8 l-3.4 -2.7 2.7 -2.7 c1.4 -1.4 2.6 -3.7 2.6 -5.2 0 -1.4 0.4 -2.5 0.9 -2.5 0.5 0 4.6 3 9.1 6.7 7.3 6 8 6.8 6.1 7.5 -1.2 0.4 -3.1 2.3 -4.2 4.3 -1.2 1.9 -2.4 3.5 -2.7 3.5 -0.4 0 -2.3 -1.4 -4.2 -3.1z"/>
    <path d="M537 275.5 c-2 -2.4 -0.6 -2.8 1.5 -0.5 1 1.1 1.3 2 0.8 2 -0.6 0 -1.6 -0.7 -2.3 -1.5z"/>
    <path d="M317.5 273.5 c-1.6 -1.3 -2.7 -2.7 -2.4 -2.9 0.3 -0.3 1.8 0.8 3.4 2.4 3.5 3.6 3.1 3.8 -1 0.5z"/>
    <path d="M513 275.2 c0 -0.5 0.7 -1.6 1.6 -2.3 1.4 -1.2 1.6 -1.1 1.3 0.5 -0.4 2 -2.9 3.5 -2.9 1.8z"/>
    <path d="M352.3 268.5 c-0.5 -0.8 -3.3 -3.5 -6.3 -6.1 -3 -2.6 -5.9 -5.4 -6.4 -6.3 -0.6 -0.9 2.5 1.5 6.7 5.3 4.2 3.8 7.7 7.2 7.7 7.7 0 1.4 -0.8 1.1 -1.7 -0.6z"/>
    <path d="M475.8 267.3 c1.8 -0.2 4.5 -0.2 6 0 1.5 0.2 0 0.4 -3.3 0.4 -3.3 0 -4.5 -0.2 -2.7 -0.4z"/>
    <path d="M459.3 266.3 c1.5 -0.2 3.7 -0.2 5 0 1.2 0.2 0 0.4 -2.8 0.4 -2.7 0 -3.8 -0.2 -2.2 -0.4z"/>
    <path d="M271.5 263.5 c-1.6 -1.4 -2.5 -2.5 -1.9 -2.5 0.6 0 2.1 1.1 3.4 2.5 3 3.2 2.4 3.1 -1.5 0z"/>
    <path d="M317.3 262.7 c1.2 -1.3 2.4 -2.2 2.6 -2 0.6 0.4 -3 4.3 -4 4.3 -0.5 0 0.2 -1 1.4 -2.3z"/>
    <path d="M332 259.8 c-3 -2.7 -4.8 -4.6 -4 -4.2 0.8 0.5 2.9 2.1 4.6 3.7 1.8 1.5 4 3.4 5 4.2 1.1 0.8 1.5 1.4 0.9 1.4 -0.5 0 -3.5 -2.3 -6.5 -5.1z"/>
    <path d="M293.4 255.6 c-4.3 -3.5 -9.9 -8.6 -12.4 -11.2 -4 -4.4 -3.8 -4.3 2.1 1.1 3.7 3.3 7.3 6.5 8 7 0.8 0.6 3.4 2.6 5.9 4.5 2.5 1.9 4.7 3.6 4.9 3.7 0.2 0.2 0.2 0.5 0 0.8 -0.3 0.2 -4.1 -2.4 -8.5 -5.9z"/>
    <path d="M260 253.4 c-0.8 -0.8 -3.3 -2.7 -5.7 -4.1 -2.4 -1.4 -4.2 -2.8 -3.9 -3 0.7 -0.7 6.7 3.1 9.5 6.1 1.4 1.4 2.2 2.6 1.9 2.6 -0.3 0 -1.1 -0.7 -1.8 -1.6z"/>
    <path d="M335.5 253.9 c-0.5 -0.6 -3 -2.8 -5.5 -5 l-4.5 -4 4.7 3.2 c5 3.4 8.7 6.9 7.2 6.9 -0.5 -0.1 -1.3 -0.6 -1.9 -1.1z"/>
    <path d="M351.2 252.7 c-3.1 -3.3 -2.7 -4.2 0.4 -1 1.4 1.4 2.3 2.7 2.1 2.9 -0.2 0.2 -1.3 -0.6 -2.5 -1.9z"/>
    <path d="M227.5 251 c-0.4 -1.7 -0.5 -3.4 -0.2 -3.6 0.2 -0.3 0.7 1 1.1 2.7 0.8 4.2 0 5 -0.9 0.9z"/>
    <path d="M306 239.7 c-1.4 -1.2 -3.9 -3.2 -5.5 -4.4 -1.7 -1.2 -2.5 -2.2 -2 -2.2 0.6 -0.1 3.3 1.9 6 4.4 2.8 2.4 4.8 4.4 4.5 4.4 -0.3 0 -1.6 -1 -3 -2.2z"/>
    <path d="M267.9 238.1 c-2.4 -1.6 -6.2 -4.8 -8.4 -7.1 l-4 -4.3 5.5 4.4 c3 2.4 6 4.9 6.7 5.6 0.7 0.6 2.2 1.5 3.3 1.8 1.1 0.3 2 1.1 2 1.6 0 1.3 -0.1 1.2 -5.1 -2z"/>
    <path d="M459.3 240.3 c0.9 -0.2 2.5 -0.2 3.5 0 0.9 0.3 0.1 0.5 -1.8 0.5 -1.9 0 -2.7 -0.2 -1.7 -0.5z"/>
    <path d="M452.3 239.3 c0.9 -0.2 2.5 -0.2 3.5 0 0.9 0.3 0.1 0.5 -1.8 0.5 -1.9 0 -2.7 -0.2 -1.7 -0.5z"/>
    <path d="M529 236.4 c2.5 -0.7 5 -1.3 5.5 -1.3 1.8 0.1 -5.9 2.7 -8 2.8 -1.1 0 0 -0.7 2.5 -1.5z"/>
    <path d="M231.5 234 c1.6 -1.6 3.3 -3 3.9 -3 0.5 0 -0.3 1.4 -1.9 3 -1.6 1.7 -3.3 3 -3.9 3 -0.5 0 0.3 -1.3 1.9 -3z"/>
    <path d="M260.1 223.6 c-2.4 -2.4 -4.2 -4.8 -4 -5.3 0.2 -0.4 2.6 1.6 5.3 4.5 5.9 6.3 4.8 7 -1.3 0.8z"/>
    <path d="M263 220.4 c-3 -2.9 -5.2 -5.5 -4.9 -5.7 0.2 -0.1 1.7 -0.9 3.3 -1.7 1.6 -0.8 3.8 -3 4.9 -4.7 l1.9 -3.3 5.4 4.7 c3 2.6 5.4 5 5.4 5.3 0 0.3 -1.5 1 -3.2 1.5 -2.4 0.7 -3.9 2.1 -5.4 5.2 l-2.1 4.1 -5.3 -5.4z"/>
    <path d="M282.1 203.4 c-5.2 -5.2 -11.3 -10.6 -13.7 -12 -5.6 -3.3 -5.8 -4.3 -0.2 -1.2 4.5 2.5 18.6 15.4 21.9 19.9 1.1 1.6 1.9 2.9 1.7 2.9 -0.2 -0.1 -4.5 -4.4 -9.7 -9.6z"/>
    <path d="M276 207.3 c-4 -4.1 -4.1 -4.3 -0.9 -1.7 3.1 2.5 6.5 6.4 5.6 6.4 -0.1 0 -2.3 -2.1 -4.7 -4.7z"/>
    <path d="M387 165 c-1.9 -1.1 -3 -1.9 -2.5 -1.9 0.6 0 2.6 0.8 4.5 1.9 1.9 1.1 3.1 1.9 2.5 1.9 -0.5 0 -2.6 -0.8 -4.5 -1.9z"/>
    <path d="M455 165.2 c0 -0.9 8.1 -5.5 8.6 -4.9 0.3 0.3 -1.5 1.6 -4 3 -2.6 1.4 -4.6 2.3 -4.6 1.9z"/>
    <path d="M374.3 157.9 c-3.3 -2.1 -4 -2.9 -2.5 -2.9 0.8 0.1 7 5 6.2 5 -0.3 0 -2 -1 -3.7 -2.1z"/>
    <path d="M560 157.3 c1.3 -1.8 2.6 -3 2.9 -2.8 0.3 0.3 -0.8 1.8 -2.3 3.3 l-2.9 2.7 2.3 -3.2z"/>
    <path d="M349.2 150 c-1.2 -0.5 -2.5 -1.7 -2.9 -2.5 -1.1 -3 1.5 -4 10 -4 9.8 -0.1 14.2 -1.5 29.2 -9.5 13.4 -7.1 20.4 -9.5 32.9 -11.1 7.4 -1 11.3 -1 17.8 -0.1 10.6 1.5 24 6.6 28.4 10.7 4.5 4.3 4.4 5.6 -0.3 3.9 -2.4 -0.8 -8.5 -1.3 -16.5 -1.4 -11 0 -14.3 0.4 -24.5 3 -6.5 1.7 -14.9 4.2 -18.8 5.6 -14 5.1 -21.9 6.4 -38 6.3 -8.2 0 -16 -0.4 -17.3 -0.9z"/>
    <path d="M407 147.2 c0.8 -0.5 2.6 -1.3 4 -1.6 1.7 -0.5 2 -0.4 1 0.2 -0.8 0.5 -2.6 1.3 -4 1.6 -1.7 0.5 -2 0.4 -1 -0.2z"/>
    <path d="M471.8 140.7 c-0.3 -2.3 -0.8 -5 -1.2 -5.9 -0.6 -1.3 0 -2 2.7 -3.2 18.4 -7.7 48.5 -8.6 67.6 -2.1 11.6 3.9 23.8 11.2 21.9 13 -0.3 0.3 -2.9 -0.6 -5.9 -1.9 -12.1 -5.5 -32.6 -7.1 -50.4 -4 -9.8 1.7 -28.1 5.9 -31.9 7.4 -2.3 0.8 -2.4 0.6 -2.8 -3.3z"/>
    <path d="M485.5 144 c1.1 -0.5 2.7 -0.9 3.5 -0.9 0.9 0 0.8 0.4 -0.5 0.9 -1.1 0.5 -2.7 0.9 -3.5 0.9 -0.9 0 -0.8 -0.4 0.5 -0.9z"/>
    <path d="M546.9 128.5 c-11.8 -5.1 -22.5 -6.9 -38.7 -6.2 -7.6 0.3 -15 0.8 -16.7 1.2 -6.7 1.3 -17.9 4.6 -20.5 6 -2.8 1.5 -6 1.1 -6 -0.6 0 -2.5 20 -9.9 32.5 -12 11.2 -1.9 28.9 -0.6 41.3 3.1 14.6 4.3 19.2 7 17.8 10.5 -0.7 1.9 -0.7 1.9 -9.7 -2z"/>
    <path d="M462.6 120.4 c-1.6 -1.9 -4.5 -4.3 -6.5 -5.4 -2 -1 -5.5 -3.8 -7.9 -6.3 l-4.3 -4.4 7.8 -1.8 c10.1 -2.3 36.7 -3.1 49.9 -1.6 15.3 1.8 30.1 6.7 38.2 12.8 3.4 2.6 4.4 5 1.5 3.8 -1 -0.4 -5.8 -1.6 -10.8 -2.7 -19.1 -4.2 -42 -1.5 -58.7 6.8 -2.6 1.3 -5.1 2.4 -5.5 2.3 -0.4 0 -2.1 -1.6 -3.7 -3.5z"/>
    <path d="M441.8 95.3 c-0.9 -3.2 -3.3 -8.4 -5.3 -11.7 -1.9 -3.2 -3.5 -6.2 -3.5 -6.7 0 -1.5 11.4 -8.5 18.6 -11.3 3.6 -1.5 10 -3.1 14.2 -3.7 23.5 -3.2 46.3 11.9 51.1 33.9 1.1 5 1.6 4.9 -11.9 2.6 -17.3 -2.9 -37.6 -2.2 -58.5 2.1 -2.9 0.6 -3 0.5 -4.7 -5.2z"/>
  </g>
  <g fill="#e04b3e">
    <path d="M 469 267.4 C 453.9 266.4 437.499 264.3 417.199 260.3 C 394.499 255.8 395.2 255.6 374.8 255.6 C 354.6 255.5 354.1 255.5 351.7 253.2 C 346.5 248.3 348.4 239.4 355.3 232.8 C 361.3 227.2 365.3 226.8 378.8 226.8 C 389.8 226.8 398.8 228.2 428.5 234.5 C 460.7 241.2 489.6 243.6 507.2 240.9 C 519.5 239 535.1 234.9 540.7 232.2 C 547 229.1 549.858 229.366 550.358 234.466 C 551.358 244.866 525 253 489.2 253 C 464.1 253 448.4 251.1 404.5 242.6 C 383.4 238.5 364 238.8 364 243.1 C 364 243.8 364.7 243.9 365.8 243.5 C 372.5 240.8 388.8 242.1 416.5 247.6 C 439.7 252.2 450.7 253.7 469.5 255 C 492.3 256.5 520.6 254.5 534.6 250.5 C 540 248.9 539.914 256.104 534.414 261.404 C 529.014 266.704 523.9 268 497 267.8 C 484.1 267.7 471.5 267.5 469 267.4 Z"/>
  </g>
  <g fill="#8a8a8a">
    <path d="M410.5 429.9 c-10.1 -1.2 -14.9 -2.5 -16.5 -4.4 -1 -1.2 -0.9 -1.5 0.7 -1.5 1 0 2.8 -0.7 4 -1.5 1.9 -1.3 3.3 -1.4 9 -0.5 3.7 0.6 10.6 1 15.3 0.9 7.3 -0.1 9.1 0.2 12.4 2.2 l3.9 2.3 -3.9 1.3 c-5.3 1.9 -15.2 2.4 -24.9 1.2z"/>
    <path d="M438.4 423.1 c-6 -3.7 -8.8 -9.3 -6.5 -13 1.3 -2 4.4 -0.5 8 3.9 3.8 4.8 5.4 4.9 19.2 2 16.3 -3.4 25.7 -7 35.6 -13.8 8.5 -5.8 20 -18.5 25.8 -28.6 2.7 -4.7 2.8 -4.9 1.1 -7.7 -1.6 -2.7 -1.6 -2.8 0.3 -3.9 2.8 -1.4 6.3 -1.3 8.8 0.5 l2.2 1.6 -3.5 7.7 c-8.2 18 -22 32.7 -39.4 42 -17.9 9.6 -43.5 14.2 -51.6 9.3z"/>
    <path d="M370.3 418.5 c-15.2 -3.9 -20.2 -6.2 -23.7 -10.8 -4.7 -6.2 -4 -14.2 1.4 -14.2 2 0 2.6 0.7 3.6 4.8 0.7 2.6 1.7 5.4 2.3 6.1 2.3 2.7 28.3 9.6 36.3 9.6 1.6 0 4.1 -1.2 6.1 -3 4.5 -4 5.7 -3.8 5.7 0.8 -0.1 4.4 -1.3 6.3 -5.7 8.5 -4.6 2.4 -11.1 2 -26 -1.8z"/>
    <path d="M 335 412.1 C 323.1 407.6 314 403 309.8 399.2 C 307.7 397.3 306 395.4 306 394.9 C 306 393 314.404 394.447 318.204 396.747 C 321.704 398.947 339 406 340.3 406 C 341.2 406 347.9 413.3 348 414.3 C 348 415.8 342.3 414.8 335 412.1 Z"/>
    <path d="M440.9 411 c-3.3 -3.9 -3.6 -4 -13.4 -5.4 -24.2 -3.5 -27 -3.2 -32.2 2.8 -1.7 1.9 -3.3 2.6 -5.8 2.6 -3.3 0 -3.5 -0.2 -2.9 -2.7 1 -4.4 3.7 -7.6 8.5 -10.1 4 -2.2 5.3 -2.3 15.4 -1.8 28.1 1.3 37.4 4.9 37.8 14.7 0.3 5.1 -3 5.1 -7.4 -0.1z"/>
    <path d="M499.7 413.3 c-1.4 -0.4 -0.9 -1.1 2.5 -3.5 2.4 -1.7 6.3 -4.9 8.7 -7.2 l4.3 -4.1 -0.7 3.5 c-1 4.7 -3.1 8.7 -5.3 9.8 -2.3 1.2 -7.3 2 -9.5 1.5z"/>
    <path d="M451.6 410.8 c-1.8 -5.7 -1.6 -6.6 1.2 -7.2 1.5 -0.3 4.5 -0.7 6.7 -0.8 4 -0.3 4 -0.3 4 3.2 0 3.2 -0.3 3.5 -3.5 4.1 -1.9 0.3 -4.5 0.9 -5.8 1.3 -1.5 0.5 -2.3 0.3 -2.6 -0.6z"/>
    <path d="M467.6 409.5 c-1.3 -3.5 -0.5 -7.4 2 -10.5 5.5 -6.4 19.4 -11.2 26.5 -9.1 4.9 1.5 5.6 2.7 3 5.5 -1.9 2 -2.9 2.3 -6.6 1.8 -6.5 -0.7 -14.8 3.5 -17.5 8.9 -1.1 2.1 -2.4 3.9 -2.9 3.9 -0.5 0 -1.6 0.3 -2.4 0.6 -0.8 0.3 -1.7 -0.2 -2.1 -1.1z"/>
    <path d="M406.8 406.3 c1.2 -0.2 3.2 -0.2 4.5 0 1.2 0.2 0.2 0.4 -2.3 0.4 -2.5 0 -3.5 -0.2 -2.2 -0.4z"/>
    <path d="M359.5 404 c-2.9 -1.1 -4.1 -2.9 -4.9 -7.3 -0.9 -4.6 -2.1 -5.4 -18.8 -12.4 -15.7 -6.6 -19.5 -7.3 -23.5 -4.5 -2 1.4 -3.4 1.7 -5 1.1 -3.1 -1.1 -2.9 -2.3 1.1 -6.7 3.4 -3.6 3.6 -3.7 10.3 -3.6 5.5 0 8.2 0.7 13.8 3.3 3.9 1.8 9.5 4.2 12.5 5.3 12.5 4.7 18.1 10.7 17.9 19.1 -0.1 5 -1.1 6.6 -3.4 5.7z"/>
    <path d="M373.4 401.8 c-7 -1.9 -7.2 -2.1 -7.6 -5.4 -0.3 -2.6 0 -3.4 1.2 -3.4 1.6 0 18.9 4.8 20.2 5.6 1.5 0.9 -2.4 5.4 -4.6 5.3 -1.1 0 -5.3 -1 -9.2 -2.1z"/>
    <path d="M425 394.9 c-6.9 -1 -15.2 -1.8 -18.5 -1.9 l-6 -0.3 4.4 -0.7 c2.4 -0.3 6.9 -0.3 10 0.3 3.1 0.5 10.3 1.4 16.1 2.1 5.8 0.7 9.6 1.4 8.5 1.7 -1.1 0.3 -7.6 -0.3 -14.5 -1.2z"/>
    <path d="M520 393.3 c0 -0.7 4.6 -6.9 7 -9.5 0.8 -0.9 3.4 -2.1 5.8 -2.8 5 -1.3 11.4 -6.7 13.2 -11 1.8 -4.3 3.5 -3.1 3.4 2.3 0 3.3 -0.7 5.4 -2.6 7.9 -2.5 3.3 -11.9 9 -17.8 10.9 -1.7 0.5 -4.3 1.3 -6 1.8 -1.6 0.5 -3 0.7 -3 0.4z"/>
    <path d="M422.5 390.5 c-4.9 -0.8 -11.9 -2 -15.5 -2.8 -3.6 -0.9 -9 -2 -12 -2.7 -6.6 -1.4 -25 -6.6 -29.9 -8.5 -24.6 -9.3 -41.1 -16.9 -57.1 -26.3 -43.2 -25.6 -82.9 -63.2 -83 -78.6 0 -2.8 3.5 -9.6 4.9 -9.6 2 0 4.2 3.9 3.6 6.3 -2.3 8.9 20.6 33.9 53 57.9 39.4 29.1 82.3 46.9 136 56.3 11.2 1.9 49.3 1.4 59 -0.8 7.5 -1.8 17 -4.8 20.4 -6.7 5.5 -2.9 4.1 1.5 -2.8 8.9 -2.6 2.8 -3.5 3.1 -8.5 3.1 -3.1 0 -7.3 0.7 -9.3 1.5 -5.9 2.5 -8 2.7 -29.3 3 -13.6 0.2 -23.5 -0.1 -29.5 -1z"/>
    <path d="M 301.5 389.1 C 294.6 386.6 290.8 384.6 281.3 378.3 C 266.3 368.4 261.6 359.2 267.6 352.1 C 271.9 346.9 274.3 348.4 273.3 355.7 C 272.6 360.9 274.4 363.7 282.3 369.8 C 289.7 375.4 306.1 384 309.5 384 C 310.9 384 313.2 383.3 314.5 382.4 C 317.2 380.6 319.435 380.912 319.435 383.212 C 319.435 384.012 318.8 386.2 317.4 387.9 C 315.3 390.5 314.1 391 310.7 391 C 308.4 390.9 304.3 390.1 301.5 389.1 Z"/>
    <path d="M500 386.7 c0 -0.2 1.5 -1.6 3.3 -3.3 l3.2 -2.9 -2.9 3.3 c-2.8 3 -3.6 3.7 -3.6 2.9z"/>
    <path d="M255.3 383.4 c-4.4 -2.2 -16.8 -12.9 -22.6 -19.5 -6.8 -7.8 -8.6 -11.9 -8.2 -18.7 0.4 -5 3.4 -15.5 5 -17 0.3 -0.3 1.5 0.4 2.7 1.6 2 2 2.1 2.6 1.1 8.9 -1.5 10.4 -0.5 13 9.8 23.8 4.9 5 10.9 10.3 13.3 11.6 4.2 2.2 4.8 2.2 9.2 1.1 4.4 -1.2 4.9 -1.1 6.8 0.7 2 2 2 2.1 0 4.2 -4.4 4.9 -11.2 6.2 -17.1 3.3z"/>
    <path d="M 530 378.5 C 530 377.6 533.5 370.4 535.2 367.8 C 537.1 365.1 539.9 356.5 542 347.3 C 543.4 341.1 544.23 339.416 547.388 340.415 C 551.498 341.715 550.4 341.1 547.9 352.6 C 545.2 365.3 543.5 369.9 540.2 373.3 C 536.6 377.1 530 380.5 530 378.5 Z"/>
    <path d="M511.5 374 c-1.1 -0.4 -3.3 -2.2 -5 -4 -2.7 -2.8 -3 -3.7 -3 -9.8 0 -6 0.4 -7.3 3.6 -12.2 4.3 -6.5 8.3 -10.5 9.8 -9.5 2.1 1.2 1.1 6.6 -2 11.2 -5.4 7.8 -4.8 14.9 1.6 18.3 3 1.6 3.2 3.1 0.7 5.3 -2.1 1.9 -2.8 2 -5.7 0.7z"/>
    <path d="M296.8 368 c-4.3 -2.8 -8.2 -5 -8.7 -5 -0.5 0 -1.2 -0.4 -1.5 -0.9 -0.6 -1 1.3 -7.1 2.2 -7.1 0.8 0 9.1 4.9 15.5 9.3 l5.9 3.9 -2.3 2.4 c-1.2 1.3 -2.5 2.4 -2.8 2.4 -0.3 0 -4.1 -2.3 -8.3 -5z"/>
    <path d="M255.9 361.6 c-10.9 -8 -18.9 -18.2 -18.9 -24.3 l0 -3.1 3.5 1.7 c2 0.9 4.7 3.6 6.3 6.2 1.6 2.5 5.9 7.2 9.6 10.4 4.7 4.1 6.6 6.6 6.6 8.2 0 1.4 0.5 3.3 1 4.4 1.7 3.1 -0.3 2.2 -8.1 -3.5z"/>
    <path d="M277.5 361.6 c-1.3 -1.9 -1.6 -3.7 -1.1 -6.8 0.3 -2.7 0.1 -5.2 -0.8 -6.7 -2.1 -3.8 -27.9 -29.1 -29.8 -29.2 -1 -0.1 -2.2 -0.3 -2.8 -0.4 -0.5 -0.1 -1.4 -0.3 -2 -0.4 -0.5 0 -1 -0.7 -1 -1.4 0 -2.4 3.5 -4.7 7.2 -4.7 3 0 5 1.2 12.4 7.7 20.2 17.6 26.2 25.8 25.1 35 -0.3 3 -1.3 5.4 -3 7 l-2.5 2.5 -1.7 -2.6z"/>
    <path d="M516 361.6 c-0.6 -0.9 -1 -2.1 -0.7 -2.8 0.4 -0.9 0.6 -0.7 0.6 0.4 0.1 0.9 0.7 1.8 1.4 2.1 0.6 0.2 0.9 0.7 0.6 1.1 -0.3 0.4 -1.2 0 -1.9 -0.8z"/>
    <path d="M 520.8 350.3 C 520.6 348.7 521.3 345.6 522.3 343.3 C 524.8 337.5 524.7 331 522.1 325.8 L 520 321.6 L 522.2 319.3 L 524.4 317 L 527.258 318.728 C 529.458 320.928 532 329.8 532 333.9 C 532 339.2 524.8 353 522 353 C 521.5 353 521 351.8 520.8 350.3 L 520.8 350.3 Z"/>
    <path d="M430 343.3 c-15.7 -1.5 -44.7 -8.9 -63 -16.3 -12.1 -4.8 -28 -12.5 -48 -23.4 -18.1 -9.7 -23.1 -12.9 -39.5 -25.2 -11.1 -8.2 -14.1 -10.7 -24.8 -20.1 -4.6 -4.1 -6.7 -5.3 -9.2 -5.3 -1.8 0 -3.8 -0.6 -4.4 -1.4 -1.6 -2 3.1 -5.6 7.3 -5.6 3.7 0 5.4 1.1 16.1 10.3 15.9 13.8 38.1 29.2 57.7 40 12.7 7.1 36.3 18.4 45.8 22.1 5.2 2 10.2 4.1 11 4.6 10.5 6.8 34.2 14.5 42.5 13.7 2.8 -0.3 8.9 0.1 13.7 0.9 5.4 0.9 15.4 1.3 26.5 1.3 20.7 -0.2 23.7 -0.9 40.3 -9.3 5.8 -2.9 11.6 -5.7 13 -6.1 2.5 -0.8 2.5 -0.8 0.6 1.4 -5.7 6.3 -21.8 14.1 -34.6 16.7 -7 1.4 -41.6 2.6 -51 1.7z"/>
    <path d="M283.6 340.4 c-0.8 -2 -0.4 -2.5 1.1 -1.6 0.7 0.4 0.9 1.3 0.4 2.1 -0.6 1 -1 0.9 -1.5 -0.5z"/>
    <path d="M573 337.2 c0 -1 -0.5 -2.3 -1.1 -2.9 -1.7 -1.7 -0.1 -3.3 3.1 -3.3 3.8 0 5.3 -2.8 4.8 -9.3 -0.3 -4.6 -0.1 -5.2 2.2 -6.4 3.1 -1.5 4.6 -0.3 6 4.9 1.9 6.9 -1.9 14.5 -8.7 17.4 -4.4 1.9 -6.3 1.8 -6.3 -0.4z"/>
    <path d="M449 336.3 c-10.4 -0.6 -20.9 -2.6 -24.5 -4.6 -7.4 -4.2 -10.9 -13.2 -6.7 -17 1.6 -1.5 2 -1.5 4 -0.1 1.2 0.8 2.2 2.2 2.2 3 0 2.9 2.9 7.1 5.7 8.2 7.8 3 24.3 4 33.2 2.1 4 -0.8 5.1 -1.6 6.1 -3.9 0.7 -1.6 0.9 -3.4 0.5 -3.9 -0.3 -0.6 0.6 -1.6 2 -2.3 3.3 -1.5 4.5 0 4.5 5.6 0 9.6 -9.1 13.9 -27 12.9z"/>
    <path d="M476.1 332 c1.8 -2.2 4.4 -4.3 5.8 -4.7 1.4 -0.3 5.4 -1.8 8.8 -3.3 6 -2.7 6.3 -2.8 9.7 -1.2 1.9 1 3.5 2 3.6 2.3 0 0.9 -14.7 7.6 -20.5 9.4 -2.7 0.8 -6.3 1.5 -7.8 1.5 l-2.8 0 3.2 -4z"/>
    <path d="M238.3 331.1 c-5.3 -3.8 -12.9 -12.6 -15.3 -17.8 -2.7 -5.9 -2.6 -13.5 0.3 -19.3 3.8 -7.5 3.6 -7.4 6.3 -4.9 2.8 2.6 3 4.6 0.8 7.7 -3.3 4.8 -1 13 5.8 20.7 3.5 4 11.3 9.7 12.1 8.9 0.7 -0.7 5.7 2.5 5.7 3.6 0 2.2 -3.5 4 -7.4 4 -3.1 0 -5.4 -0.8 -8.3 -2.9z"/>
    <path d="M406.5 331.5 c-4.4 -1.2 -10.9 -3.5 -14.5 -4.9 -6.5 -2.7 -16 -8.9 -16 -10.5 0 -1.5 9.6 -0.3 13.6 1.7 2.1 1.1 8.4 3.5 13.9 5.3 7.5 2.4 11 4.2 14.2 7.1 l4.3 3.8 -3.8 -0.1 c-2 0 -7.3 -1.1 -11.7 -2.4z"/>
    <path d="M300.2 329.8 c-1.9 -1.9 -1.4 -2.8 1.8 -2.8 1.7 0 3 0.4 3 0.8 0 0.9 -2.1 3.2 -3 3.2 -0.3 0 -1.1 -0.5 -1.8 -1.2z"/>
    <path d="M550.3 328.2 c-2 -1.3 -6.3 -8.5 -6.3 -10.6 0 -2.8 4.7 -10.1 9.2 -14.4 l3.6 -3.4 2.5 2.6 2.5 2.5 -4.9 4.9 c-5.4 5.4 -6.2 8.7 -2.9 11.7 1.1 1 2 2.4 2 3 0 1.7 -4.4 4.5 -5.7 3.7z"/>
    <path d="M429.7 323.2 c-1 -1 -1.7 -2.6 -1.7 -3.6 0 -4.5 -2.9 -7.3 -11.3 -10.9 -16.1 -7 -22.7 -9 -27.1 -8.3 -2.3 0.3 -5.7 0.9 -7.6 1.1 -7 1.1 -7.8 -2.3 -1.6 -6.9 2.1 -1.6 4.2 -2 10.4 -2 7.1 0 8.9 0.5 21.7 5.7 17.1 7 20.2 8.8 22 13 1.6 3.8 1.2 11.7 -0.7 12.8 -1.9 1.2 -2.3 1.1 -4.1 -0.9z"/>
    <path d="M459.7 324.3 c-1.2 -1.2 -0.7 -8.3 0.8 -11.2 2.1 -4.2 6.8 -6.5 23.3 -11.6 15.2 -4.6 19 -5.2 22.3 -3.5 4.1 2.2 6.5 11.2 3.3 12.4 -2.9 1.1 -4.4 0.6 -5.4 -1.9 -1.3 -3.4 -5.7 -3.3 -17.9 0.5 -14.4 4.6 -18.4 6.8 -19.5 11 -0.5 1.9 -1.5 3.8 -2 4.2 -1.4 1 -4.1 1 -4.9 0.1z"/>
    <path d="M443.3 320.6 c-5.2 -0.9 -5.3 -1 -5.3 -4.2 0 -4 1.1 -4.2 11.6 -2.2 6.5 1.2 6.9 1.5 5.8 5.6 -0.7 2.5 -2.2 2.6 -12.1 0.8z"/>
    <path d="M503.5 321 c-4.2 -1.3 -9.7 -6.8 -9.3 -9.4 0.4 -2.9 5.1 -3.4 7 -0.8 2.5 3.6 5.4 4.4 9.5 2.7 5 -2.1 7.3 -4.2 9.4 -9.1 1 -2.2 2.7 -4.8 3.8 -5.8 1.9 -1.7 2 -1.7 3.1 0.4 0.7 1.3 0.9 3.7 0.5 6.1 -1.8 10.6 -14.2 18.8 -24 15.9z"/>
    <path d="M282.2 316.8 c-1.9 -1.9 -1.4 -2.8 1.8 -2.8 1.7 0 3 0.4 3 0.8 0 0.9 -2.1 3.2 -3 3.2 -0.3 0 -1.1 -0.5 -1.8 -1.2z"/>
    <path d="M234.6 310.4 c-1.4 -2.1 -2.6 -4.5 -2.6 -5.4 0.1 -0.8 0.7 -0.1 1.4 1.5 0.8 1.7 2 3.8 2.8 4.8 1.2 1.7 1.5 1.6 4.5 -1.5 l3.2 -3.3 -4.6 -4.8 c-3.4 -3.7 -4.8 -4.5 -5.4 -3.5 -0.5 0.7 -0.9 1.7 -0.9 2.2 0 0.5 -0.3 0.7 -0.6 0.4 -0.7 -0.7 1.4 -4.8 2.4 -4.8 0.4 0 2.8 2.4 5.4 5.4 l4.7 5.3 -3.9 3.8 -3.8 3.7 -2.6 -3.8z"/>
    <path d="M 376.2 311.9 C 368.3 309.5 346.8 296.7 341 290.9 C 335 284.8 335.1 276.7 341.3 274.6 C 344.7 273.4 346.3 275.1 345.4 279.2 C 344.4 284.2 345.8 285.8 357 292.4 C 376.7 304.1 384.5 307.2 386.5 304 C 386.8 303.5 388.4 303 390.1 303 C 393.8 303 393.763 304.314 390.163 308.314 C 386.963 311.714 381.6 313.5 376.2 311.9 Z"/>
    <path d="M267 304.5 c-1.5 -1.8 -0.6 -4.5 1.3 -4.5 0.8 0 2 0.7 2.7 1.5 1 1.2 1 1.8 0 3 -1.6 1.9 -2.4 1.9 -4 0z"/>
    <path d="M511.7 300.1 l-1.6 -2.8 9 -8.8 9 -8.8 2.1 2 c1.3 1.4 1.8 2.7 1.4 4.1 -0.7 2.1 -15.9 17.2 -17.4 17.2 -0.4 0 -1.5 -1.3 -2.5 -2.9z"/>
    <path d="M529.9 296.6 c-1 -2.2 -0.8 -2.9 2 -6.1 1.7 -2 3.1 -4.7 3.1 -6.1 0 -2.2 -3.6 -6.8 -7.2 -9.1 -0.7 -0.4 -2.2 -1.9 -3.3 -3.2 l-2 -2.4 5.5 0.7 c6.4 0.8 9.4 2.5 12 6.9 4.1 6.6 1.4 15.8 -5.9 20 -3.1 1.8 -3.1 1.8 -4.2 -0.7z"/>
    <path d="M481.7 295.2 c-1.5 -1.6 -2.7 -3.1 -2.7 -3.4 0 -0.4 1.7 -1.2 3.7 -1.9 3.5 -1.1 3.8 -1.1 6.6 2.1 3.1 3.5 2.9 4.1 -2.4 5.3 -2 0.5 -3.2 0 -5.2 -2.1z"/>
    <path d="M365.5 293.5 c-2.2 -1.3 -3.6 -2.5 -3.1 -2.5 1 0 7.6 3.9 7.6 4.6 0 0.7 -0.3 0.5 -4.5 -2.1z"/>
    <path d="M327.2 289.1 c-7.5 -5.1 -24.1 -20.6 -23 -21.6 0.2 -0.2 2.6 0.2 5.3 0.8 3.9 0.9 6.8 2.7 12.3 7.4 3.9 3.4 8.3 7 9.7 7.9 1.3 0.9 2.7 2.4 3 3.5 0.4 1 1.8 3.3 3.2 4.9 2.3 2.8 2.4 3 0.5 3 -1.2 0 -6.1 -2.7 -11 -5.9z"/>
    <path d="M373.5 294.1 c-0.6 -0.5 -3.9 -2.5 -7.5 -4.4 -6.1 -3.3 -6.5 -3.7 -6.2 -6.8 0.1 -1.8 0.5 -3.5 0.8 -3.8 0.6 -0.6 11.7 4.8 17.5 8.5 l4.1 2.6 -3.5 2.4 c-4.1 2.7 -4 2.7 -5.2 1.5z"/>
    <path d="M496.3 292.4 c-0.7 -1.8 1.9 -4.3 8.1 -7.5 4 -2.1 6.7 -2 10.1 0.5 2 1.4 2 1.5 -0.4 4 -1.8 1.9 -2.8 2.3 -4.2 1.6 -2.2 -1.2 -4.9 -0.3 -4.9 1.6 0 2.1 -7.9 1.9 -8.7 -0.2z"/>
    <path d="M251.6 290.1 c-1.4 -1.5 -1.5 -2.4 -0.6 -4 1.4 -2.6 3 -2.7 3 -0.2 0 1.1 0.7 2.1 1.6 2.3 1.4 0.3 1.4 0.5 -0.3 2.1 -1.9 1.6 -2.1 1.6 -3.7 -0.2z"/>
    <path d="M349.5 284 c-1.3 -1.4 -1.6 -2.8 -1.1 -5.3 0.5 -2.5 0.2 -4 -1.1 -5.5 -3.1 -3.6 -23.7 -20.3 -27 -22 -3.1 -1.5 -3.4 -1.5 -5.7 0.7 -4.5 4.2 -11 0.4 -7 -4 5.5 -6.1 12.8 -6.5 20.7 -1.1 9.1 6.1 25.3 20.8 27.1 24.5 2 4.4 2.1 9.6 0 12.5 -1.9 2.7 -3.6 2.8 -5.9 0.2z"/>
    <path d="M517.8 282.3 c-0.8 -1 -2.2 -3.1 -3.2 -4.6 -1.7 -2.7 -1.7 -3 0 -4.8 2.4 -2.7 3.8 -2.4 7.3 1.6 3.7 4.3 3.7 4.5 0.8 7.3 -2.8 2.7 -3 2.7 -4.9 0.5z"/>
    <path d="M261 276.1 c0 -0.5 0.7 -1.4 1.5 -2.1 1.1 -1 1.8 -0.9 3 0.3 2.2 2.2 1.9 2.7 -1.5 2.7 -1.6 0 -3 -0.4 -3 -0.9z"/>
    <path d="M237.5 263.8 c-6.1 -3.4 -10.5 -10.9 -10.5 -17.8 0 -7.9 3.1 -12 15.8 -20.5 3.8 -2.5 4.5 -2.7 5.8 -1.3 2.6 2.5 0.7 6.4 -4.7 9.9 -8.8 5.6 -10.7 10.2 -7.3 17.5 2.1 4.4 5 6.4 9.2 6.4 4.3 0 5.4 2.6 2.3 5.2 -2.6 2 -7.6 2.3 -10.6 0.6z"/>
    <path d="M303 262.4 c-5.8 -3.3 -16.5 -12.1 -22.3 -18.3 -8.4 -9 -10.8 -17.1 -6.6 -22.5 2.2 -2.8 4.6 -3.3 7.2 -1.3 1.6 1.1 1.7 1.5 0.2 4.4 -2.2 4.5 -0.8 7.2 9.3 17.6 14 14.3 19.7 17.5 24.5 13.7 3.8 -3 6.1 -2 5.3 2.2 -1 5 -3.3 6.8 -8.5 6.8 -3.1 0 -6.1 -0.9 -9.1 -2.6z"/>
    <path d="M280 248.3 l-5.5 -5.8 5.8 5.5 c5.3 5 6.2 6 5.4 6 -0.1 0 -2.7 -2.6 -5.7 -5.7z"/>
    <path d="M298.1 241.9 c-3.3 -2.9 -6.1 -5.5 -6.1 -5.9 0 -0.4 1 -1.6 2.3 -2.8 l2.3 -2.2 6.2 5.1 c3.4 2.7 6.2 5.3 6.2 5.8 0 0.4 -1.1 1.7 -2.4 3 l-2.3 2.2 -6.2 -5.2z"/>
    <path d="M267.9 238.1 c-8.3 -5.4 -20.2 -19.2 -22.3 -25.9 l-0.8 -2.3 3.9 2.1 c2.1 1.1 4.3 2 5 2 0.7 0 1.3 0.4 1.3 1 0 0.5 3 4.1 6.7 8 5.6 6 12.2 16.5 11 17.6 -0.2 0.2 -2.3 -0.9 -4.8 -2.5z"/>
    <path d="M255.2 232 c-1.8 -1.7 -2.9 -3 -2.4 -3 0.5 0 2.1 1.4 3.7 3 3.7 3.8 3 3.8 -1.3 0z"/>
    <path d="M285.7 233.2 c-2.1 -2.3 -2.1 -4.5 -0.2 -8.2 2.3 -4.5 0.3 -8.1 -10.2 -18.1 -9.3 -8.8 -14.2 -11.9 -18.7 -11.9 -2.2 0 -2.6 -0.5 -2.6 -2.8 0 -6 5.5 -6.9 13.8 -2.1 6.2 3.5 19.2 15.5 23.3 21.6 5.1 7.3 4.8 15.1 -0.9 21.6 -1.9 2.1 -2.5 2.1 -4.5 -0.1z"/>
    <path d="M298.2 223 c0 -1.9 0.2 -2.7 0.5 -1.7 0.2 0.9 0.2 2.5 0 3.5 -0.3 0.9 -0.5 0.1 -0.5 -1.8z"/>
    <path d="M 250 209.2 C 242.8 205.6 240.2 195 243.5 182.5 C 246.3 171.9 252.324 165.294 261.124 163.894 L 266.3 162.7 L 265.529 165.459 C 264.829 168.559 263.1 170.5 258.1 173.2 C 254 175.5 251.2 180.3 250.4 186.8 C 249.6 193.5 251.2 199.4 254.5 201.6 C 256.8 203.1 258.3 203.1 263 201.9 C 265.9 201.1 265.059 205.248 261.859 208.048 C 258.159 211.048 254.9 211.7 250 209.2 Z"/>
    <path d="M354.3 153.3 c0.9 -0.2 2.5 -0.2 3.5 0 0.9 0.3 0.1 0.5 -1.8 0.5 -1.9 0 -2.7 -0.2 -1.7 -0.5z"/>
  </g>
  <g fill="#fefefe">
    <path d="M427.7 464.3 c-0.5 -0.8 -1.1 -17.6 -0.8 -23 0.1 -2.8 0.5 -3.3 2.5 -3.3 2.2 0 2.6 0.6 3 4.3 0.4 2.3 0.7 6.9 0.9 10.2 l0.2 6 4.8 0.3 c5.1 0.3 6.9 2.1 4.7 4.7 -1.3 1.6 -14.5 2.2 -15.3 0.8z"/>
    <path d="M448.1 453.8 c-0.7 -5.1 -1.4 -10.9 -1.7 -12.9 l-0.6 -3.6 7 -1.1 c10.3 -1.7 11.2 -1.6 11.2 1.2 0 2.5 -1.6 3.6 -5.5 3.6 -3.7 0 -5.5 1.1 -5.5 3.2 0 1.9 0.4 2 5.4 1.4 4.9 -0.5 5.5 -0.4 6.1 1.4 0.9 2.8 -0.2 4 -3.6 4 -4.1 0 -7 1.7 -6.2 3.6 0.4 1.2 1.8 1.5 6.2 1.2 5.4 -0.3 5.6 -0.2 5.9 2.3 0.3 2.6 0.1 2.7 -7.3 3.8 -4.2 0.6 -8.2 1.1 -8.9 1.1 -0.9 0 -1.7 -2.8 -2.5 -9.2z"/>
    <path d="M473.4 449.3 c1.1 -16.1 1.6 -17.7 5.2 -18.1 2.8 -0.3 3.7 0.5 10.7 9.8 4.2 5.6 7.7 10.5 7.7 11 0 0.5 -1.1 1.3 -2.6 1.6 -1.8 0.5 -3.1 0.1 -4.7 -1.4 -2 -1.9 -2.5 -1.9 -6.2 -0.6 -2.2 0.7 -4.1 1.4 -4.2 1.4 -0.2 0 -0.3 1.1 -0.3 2.5 0 1.4 -0.8 2.9 -1.9 3.5 -4.2 2.2 -4.4 1.6 -3.7 -9.7z m10.3 -3.9 c0.2 -0.6 -0.5 -2.2 -1.6 -3.5 l-2 -2.4 -0.1 3.8 c0 3.1 0.3 3.8 1.7 3.5 0.9 -0.2 1.8 -0.8 2 -1.4z"/>
    <path d="M364.6 458.2 c-0.4 -0.7 1.7 -10.5 3.8 -17 0.6 -1.9 0.3 -2.4 -2.3 -3.3 -3.1 -1.1 -3.9 -3.1 -2.2 -5.8 0.5 -0.7 1.3 -1.1 1.8 -0.8 0.5 0.3 4.5 1.5 8.9 2.7 4.3 1.2 8.2 2.4 8.6 2.8 0.4 0.4 0.5 1.8 0.1 3 -0.5 2.1 -1 2.3 -4.2 1.7 l-3.7 -0.6 -2.5 8.8 c-2.2 8 -2.7 8.8 -5.1 9.1 -1.4 0.2 -2.9 -0.1 -3.2 -0.6z"/>
    <path d="M337.2 449.3 c-1.4 -1.2 -2.7 -4.5 -4 -9.8 l-1.8 -8 -2.4 6.3 c-1.4 3.4 -3 6.2 -3.7 6.2 -2.3 0 -4.3 -1.2 -4.3 -2.7 0 -2.8 8.3 -22.3 9.4 -22.3 3.3 0 5.4 3.2 6.7 10 0.7 3.8 1.5 7 1.9 7 0.4 0 1.6 -2.4 2.6 -5.2 2 -5.5 3.8 -6.7 6.6 -4.6 1.5 1.2 1.3 2.3 -2.5 12.7 -2.3 6.3 -4.7 11.6 -5.3 11.8 -0.6 0.2 -2 -0.4 -3.2 -1.4z"/>
    <path d="M502.2 448.7 c-1.7 -2 -8.4 -21.7 -7.9 -23 0.3 -0.7 3.2 -2.3 6.5 -3.6 5.9 -2.3 6.1 -2.3 9.1 -0.5 3.8 2.2 5.4 6.4 4 10.2 -0.9 2.2 -0.7 2.9 0.6 3.7 1 0.6 2.7 1.8 3.9 2.8 l2.1 1.7 -2.4 2 -2.4 2 -4.4 -2.6 c-2.5 -1.4 -4.7 -2.3 -5 -2 -0.3 0.3 0 1.9 0.6 3.7 1.2 3.4 0.9 4.4 -1.9 5.9 -1.2 0.7 -2.1 0.6 -2.8 -0.3z m4.8 -16.2 c1.9 -2.3 0.8 -5 -2 -5 -1.6 0 -2.6 0.6 -2.8 1.8 -0.4 1.8 1.4 4.7 2.8 4.7 0.4 0 1.3 -0.7 2 -1.5z"/>
    <path d="M312.3 437.9 c-1.7 -0.6 -2.3 -1.6 -2.3 -3.9 0 -2.5 -0.6 -3.3 -3.5 -4.7 -3.2 -1.5 -3.6 -1.5 -5.4 0.1 -1.5 1.4 -2.4 1.5 -4 0.6 -1.2 -0.6 -2.1 -1.7 -2.1 -2.5 0 -1.4 13.2 -13.8 17.5 -16.5 2.1 -1.2 2.6 -1.2 4.4 0.4 2.1 1.9 2.1 5 0.1 19.5 -1 7.4 -1.6 8.2 -4.7 7z m-0.1 -15.9 c0.3 -1.6 0.2 -3 -0.2 -3 -1.4 0 -4.2 3.9 -3.5 4.9 1.2 2.1 3.3 1.1 3.7 -1.9z"/>
    <path d="M351.7 436.4 c-0.3 -0.3 0.4 -2.1 1.5 -4 2.1 -3.6 6.1 -4.7 7.1 -2 1.3 3.4 -6.1 8.5 -8.6 6z"/>
    <path d="M525.2 434.3 c-1.1 -1.6 -3.9 -6.4 -6.2 -10.7 -4.1 -7.5 -4.2 -7.9 -2.5 -9.2 2.5 -1.9 3.4 -1.8 9.9 1.1 3.1 1.4 5.9 2.5 6.2 2.5 0.3 0 -0.9 -2.7 -2.7 -5.9 -2.8 -5 -3.1 -6.2 -2 -7.5 0.8 -0.9 1.9 -1.6 2.6 -1.6 1.4 0 13.5 18.5 13.5 20.6 0 1.9 -2.9 3.7 -5.2 3.1 -1.3 -0.2 -4.9 -1.6 -8 -3 l-5.7 -2.6 3.5 6.3 c3.2 5.9 3.3 6.5 1.9 8 -2.2 2.2 -3.1 2 -5.3 -1.1z"/>
    <path d="M285.3 421.5 c-11.5 -5 -7.3 -24.5 5.2 -24.5 4.1 0 8.9 2.7 10.9 6.1 3.4 5.8 -1.2 8.4 -5.2 2.9 -2.8 -3.8 -6.3 -3.9 -9.1 -0.4 -4.2 5.3 -1.9 10.9 4.8 11.6 4 0.4 4.9 1.9 2.6 4.2 -2 1.9 -4.9 2 -9.2 0.1z"/>
    <path d="M434.3 375.3 c-0.9 -2.4 -2.3 -3.3 -5.5 -3.3 -1.8 0 -2.9 0.6 -3.3 2 -0.5 1.4 -1.5 2 -3.7 2 -2.7 0 -3 -0.3 -2.4 -2.4 1.3 -5.2 9.6 -21.6 10.9 -21.6 3 0 4.7 3 7.6 13.1 1.7 5.9 3.1 11 3.1 11.3 0 0.3 -1.4 0.6 -3 0.6 -2 0 -3.3 -0.6 -3.7 -1.7z m-2.3 -9.9 c0 -3.2 -1.5 -3.8 -2.8 -1 -1.2 2.6 -0.9 3.3 1.3 3.3 0.9 0 1.5 -1 1.5 -2.3z"/>
    <path d="M445 365.6 l0 -11.3 4.5 -0.6 c9.2 -1.3 14.6 4.4 11.1 11.5 -2 4 -2 4.4 0.4 7.8 2.2 3.1 1.8 4 -2.1 4 -2 0 -3.3 -0.9 -5 -3.7 l-2.4 -3.8 -0.3 3.8 c-0.3 3.4 -0.6 3.7 -3.3 3.7 l-2.9 0 0 -11.4z m10 -2.1 c1.6 -2 0.5 -4.5 -2 -4.5 -1.6 0 -2 0.7 -2 3 0 3.3 1.9 4 4 1.5z"/>
    <path d="M471.5 369.3 c-0.3 -3.7 -0.7 -7.7 -0.8 -8.8 -0.1 -1.5 -1.1 -2.1 -3.4 -2.3 -2.7 -0.3 -3.3 -0.8 -3.3 -2.7 0 -2.9 1.2 -3.3 11 -3.7 7.4 -0.3 7.5 -0.3 7.5 2.2 0 2 -0.6 2.6 -2.9 2.8 l-2.8 0.4 0.3 9.1 0.4 9.2 -2.7 0.3 c-2.6 0.3 -2.6 0.2 -3.3 -6.5z"/>
    <path d="M410.9 374 c-1.7 -1 -1.5 -4 0.8 -11.5 0.3 -1.2 -1 -0.2 -3.4 2.5 l-4 4.4 -2 -5.3 -2 -5.4 -1.4 5.9 c-1.5 5.9 -3 7.3 -5.8 5.5 -1.1 -0.7 -1.1 -2.1 0.3 -8.7 2.9 -13.5 3.4 -14.6 6.4 -14.2 2.2 0.2 3 1.2 4.5 5.3 1 2.7 2 5.1 2.2 5.3 0.2 0.2 2 -1.5 4.2 -3.7 3 -3.2 4.3 -4 6.1 -3.5 2.7 0.8 2.8 2.4 0.6 13 -2.3 11.1 -3.1 12.4 -6.5 10.4z"/>
    <path d="M379.5 366.3 c-3.7 -1 -6.5 -3.5 -6.5 -5.9 0 -2.9 1.7 -3.1 5.9 -0.7 4.5 2.6 4.9 0.7 0.8 -3.5 -4.6 -4.7 -5 -9 -1.1 -12.1 1.5 -1.2 3.9 -2.1 5.4 -2.1 3.3 0 8 3.5 8 6 0 2.5 -2.9 3.4 -5 1.5 -0.9 -0.8 -2.2 -1.5 -2.8 -1.5 -2.5 0 -2.1 2.1 0.9 4.7 1.7 1.5 3.5 3.7 3.9 4.8 1.2 3.2 -0.8 7.2 -4.2 8.4 -1.7 0.6 -3.1 1 -3.2 1 -0.1 -0.1 -1 -0.4 -2.1 -0.6z"/>
    <path d="M349.1 355.1 c-1.2 -0.8 -1 -2.3 1.7 -9.2 1.8 -4.5 3.1 -8.2 3 -8.3 -0.2 -0.1 -1.5 -0.7 -3 -1.3 -2 -0.9 -2.5 -1.7 -2.1 -3.3 0.9 -3.3 1.9 -3.3 9.6 -0.4 9.2 3.6 9.9 4.1 8.6 6.6 -0.8 1.4 -1.9 1.8 -4.2 1.6 -3.1 -0.3 -3.3 -0.1 -6.2 7.4 -3 7.7 -4.2 8.9 -7.4 6.9z"/>
    <path d="M325.9 344.1 c-7.5 -7.6 0.3 -22.3 10.7 -20.3 1.4 0.2 3.8 1.7 5.4 3.2 2.4 2.2 3 3.6 3 7 0 8 -4.5 13 -11.8 13 -3.5 0 -4.9 -0.6 -7.3 -2.9z m11.3 -4.8 c3.1 -2.8 1.5 -10.3 -2.3 -10.3 -4.1 0 -7.9 6.3 -5.9 9.9 1.3 2.6 5.6 2.8 8.2 0.4z"/>
    <path d="M312.1 336.3 c-1.7 -1.5 -2.1 -3.1 -2.3 -9.3 l-0.3 -7.5 -2.4 4.5 c-3.4 6.6 -4 7.1 -6.2 5.9 -1 -0.5 -1.9 -1.6 -1.9 -2.3 0 -1.1 8.3 -17.2 9.5 -18.4 0.3 -0.3 1.6 0 3 0.6 2.2 1 2.5 1.8 2.5 5.9 0 2.7 0.3 5.8 0.6 7.1 0.6 2 0.9 1.8 3.5 -2.3 2.9 -4.6 4.6 -5.4 6.6 -3.4 0.9 0.9 -0.1 3.7 -3.8 11 -2.7 5.5 -5.3 9.9 -5.8 9.9 -0.5 0 -1.8 -0.8 -3 -1.7z"/>
    <path d="M282.7 316.9 c-2.2 -1.3 -2.2 -3.4 0.1 -6.7 3.6 -5.3 3.6 -5.4 -0.5 -3.7 -5.8 2.5 -5.8 2.5 -5.6 -3.5 l0.3 -5.5 -3.8 4.4 -3.7 4.3 -1.9 -2.1 c-1.9 -2.1 -1.8 -2.1 3.9 -9.6 3.1 -4.1 6.3 -7.5 7 -7.5 0.6 0 2 0.8 2.9 1.9 1.4 1.5 1.6 2.9 1 7 l-0.7 5.1 4.9 -2 c3.8 -1.7 5.4 -1.9 7.1 -1.1 1.3 0.6 2.3 1.4 2.3 1.9 0 1 -9.8 16.9 -10.8 17.6 -0.4 0.2 -1.5 0 -2.5 -0.5z"/>
    <path d="M251.7 290.3 c-2 -1.9 -0.2 -5.3 5.6 -11 5.5 -5.4 6.4 -6 8 -4.9 0.9 0.7 1.7 1.7 1.7 2.2 0 1.5 -12 14.4 -13.4 14.4 -0.7 0 -1.6 -0.3 -1.9 -0.7z"/>
    <path d="M265.2 285.4 c0.2 -0.8 1.5 -2.3 3 -3.2 2.6 -1.5 2.9 -1.5 4.5 0.1 1.7 1.7 1.7 1.9 -0.1 3.3 -2.8 2 -7.8 1.9 -7.4 -0.2z"/>
    <path d="M394.5 168 c-6.6 -2.1 -22.6 -10.9 -23.3 -12.8 -0.2 -0.8 1.2 -1.2 4.7 -1.2 6.7 0 17 -2.3 29.9 -6.6 20.8 -7 30 -8.6 45 -8.2 l13.4 0.3 2.5 2.9 c2.2 2.6 2.5 3.6 1.9 8 -0.7 6.2 -2.8 9.2 -8.9 12.8 l-4.7 2.7 0 -3.5 c0 -14.8 -16.3 -22.5 -34.7 -16.3 -10.6 3.5 -15.6 9 -16.9 18.7 -0.3 2.9 -1.2 5.2 -1.8 5.1 -0.6 0 -3.8 -0.9 -7.1 -1.9z"/>
    <path d="M421.1 168.6 c-1.6 -1.9 -0.6 -3.6 2 -3.6 1.5 0 2 0.6 1.7 2.2 -0.4 2.7 -2.1 3.3 -3.7 1.4z"/>
    <path d="M492 168.3 c-9.9 -1.3 -21.3 -3.7 -22.4 -4.8 -1.1 -1.2 -1 -2.2 0.5 -6.7 1 -2.9 1.8 -6.1 1.9 -7 0 -2.1 8.4 -4.9 25.4 -8.4 26.6 -5.4 51 -3.6 62.6 4.6 2.4 1.7 3 2.8 3 6 0 3.1 -0.6 4.3 -3.2 6.6 -3.4 2.8 -8.7 5.4 -11.2 5.4 -0.9 0 -1.6 -1.6 -2.1 -4.7 -1.5 -10.4 -8.7 -17.5 -19.2 -18.9 -15 -1.9 -29 8.4 -30.9 22.9 -0.7 5.3 -0.9 5.4 -4.4 5z"/>
    <path d="M434.4 164.6 c-0.3 -0.8 -0.4 -2.5 -0.2 -3.8 0.2 -1.8 0.9 -2.3 3.2 -2.3 3.6 0 5.6 2.7 4 5.3 -1.4 2.2 -6.2 2.8 -7 0.8z"/>
    <path d="M512.5 165 c-0.9 -1.5 1.4 -4 3.1 -3.3 2.2 0.8 1.8 4.3 -0.5 4.3 -1.1 0 -2.3 -0.5 -2.6 -1z"/>
    <path d="M528.1 162.6 c-2 -2.4 -1 -7 1.7 -7.4 3.3 -0.5 5 1.3 4.4 4.6 -0.8 4.1 -3.8 5.5 -6.1 2.8z"/>
    <path d="M420.6 157.4 c-2.7 -2.7 -1.6 -6.4 2 -6.4 3.3 0 4.7 3.1 2.8 5.8 -1.8 2.6 -2.7 2.7 -4.8 0.6z"/>
    <path d="M513.1 153.1 c-1.3 -2.4 0.8 -5.5 3.4 -5 2.8 0.6 4.2 3.4 2.6 5.3 -1.8 2.2 -4.8 2 -6 -0.3z"/>
  </g>
</svg>